<svg version="1.1" xmlns="http://www.w3.org/2000/svg" xmlns:xlink="http://www.w3.org/1999/xlink" width="565" height="128" viewBox="0 0 565 128" style="display:none;">
<defs>
<g id="icon-clear-day">
	<path class="path1" d="M10 5.625c-2.412 0-4.375 1.963-4.375 4.375s1.963 4.375 4.375 4.375 4.375-1.963 4.375-4.375c0-2.412-1.963-4.375-4.375-4.375zM10 13.125c-1.726 0-3.125-1.399-3.125-3.125s1.399-3.125 3.125-3.125 3.125 1.399 3.125 3.125-1.399 3.125-3.125 3.125zM10 4.375c0.345 0 0.625-0.28 0.625-0.625v-1.25c0-0.345-0.28-0.625-0.625-0.625s-0.625 0.28-0.625 0.625v1.25c0 0.345 0.28 0.625 0.625 0.625zM10 15.625c-0.345 0-0.625 0.28-0.625 0.625v1.25c0 0.345 0.28 0.625 0.625 0.625s0.625-0.28 0.625-0.625v-1.25c0-0.345-0.28-0.625-0.625-0.625zM14.861 6.022l0.884-0.884c0.244-0.244 0.244-0.64 0-0.884s-0.64-0.244-0.884 0l-0.884 0.884c-0.244 0.244-0.244 0.64 0 0.884s0.64 0.244 0.884 0zM5.139 13.978l-0.884 0.884c-0.244 0.244-0.244 0.64 0 0.884s0.64 0.244 0.884 0l0.884-0.884c0.244-0.245 0.244-0.64 0-0.884s-0.64-0.245-0.884 0zM4.375 10c0-0.345-0.28-0.625-0.625-0.625h-1.25c-0.345 0-0.625 0.28-0.625 0.625s0.28 0.625 0.625 0.625h1.25c0.345 0 0.625-0.28 0.625-0.625zM17.5 9.375h-1.25c-0.345 0-0.625 0.28-0.625 0.625s0.28 0.625 0.625 0.625h1.25c0.345 0 0.625-0.28 0.625-0.625s-0.28-0.625-0.625-0.625zM5.138 6.022c0.244 0.244 0.64 0.244 0.884 0s0.244-0.64 0-0.884l-0.884-0.884c-0.244-0.244-0.64-0.244-0.884 0s-0.244 0.64 0 0.884l0.884 0.884zM14.862 13.977c-0.245-0.244-0.64-0.244-0.884 0s-0.245 0.64 0 0.884l0.884 0.884c0.244 0.244 0.64 0.244 0.884 0s0.244-0.64 0-0.884l-0.884-0.884z"></path>
</g>
<g id="icon-clear-night">
	<path class="path1" d="M13.666 13.404c-1.948 1.95-5.12 1.95-7.070 0s-1.95-5.122 0-7.071c0.516-0.515 1.145-0.908 1.868-1.165 0.228-0.080 0.48-0.022 0.649 0.148 0.171 0.171 0.229 0.423 0.148 0.649-0.49 1.382-0.156 2.878 0.869 3.903 1.024 1.025 2.52 1.357 3.903 0.869 0.226-0.081 0.479-0.023 0.649 0.148 0.171 0.169 0.228 0.422 0.147 0.649-0.255 0.723-0.649 1.352-1.165 1.868zM7.48 7.217c-1.462 1.462-1.462 3.842 0 5.304 1.563 1.563 4.224 1.423 5.586-0.319-1.405 0.088-2.788-0.419-3.818-1.449s-1.536-2.413-1.449-3.818c-0.112 0.088-0.219 0.182-0.319 0.282z"></path>
</g>
<g id="icon-cloudy">
	<path class="path1" d="M15.625 6.25c-0.207 0-0.413 0.015-0.617 0.044-1.167-1.59-3.009-2.544-5.008-2.544s-3.84 0.954-5.008 2.544c-0.204-0.029-0.409-0.044-0.617-0.044-2.412 0-4.375 1.963-4.375 4.375s1.963 4.375 4.375 4.375c0.535 0 1.058-0.098 1.551-0.286 1.131 0.986 2.57 1.536 4.074 1.536 1.506 0 2.943-0.55 4.074-1.536 0.493 0.189 1.016 0.286 1.551 0.286 2.412 0 4.375-1.963 4.375-4.375s-1.963-4.375-4.375-4.375zM15.625 13.75c-0.669 0-1.286-0.215-1.794-0.573-0.917 1.105-2.283 1.823-3.831 1.823s-2.913-0.718-3.831-1.823c-0.508 0.358-1.126 0.573-1.794 0.573-1.726 0-3.125-1.399-3.125-3.125s1.399-3.125 3.125-3.125c0.422 0 0.823 0.086 1.189 0.238 0.829-1.618 2.494-2.738 4.436-2.738s3.607 1.12 4.435 2.738c0.367-0.151 0.768-0.238 1.19-0.238 1.726 0 3.125 1.399 3.125 3.125s-1.399 3.125-3.125 3.125z"></path>
</g>
<g id="icon-foggy">
	<path class="path1" d="M19.336 8.711h-3.188c-0.315-2.804-2.673-5-5.562-5-1.946 0-3.662 0.994-4.673 2.5h-4.077c-0.345 0-0.625 0.28-0.625 0.625s0.28 0.625 0.625 0.625h3.47c-0.142 0.399-0.234 0.816-0.282 1.25h-1.938c-0.345 0-0.625 0.28-0.625 0.625s0.28 0.625 0.625 0.625h1.938c0.048 0.433 0.14 0.852 0.282 1.25h-3.356c-0.408 0-0.739 0.28-0.739 0.625s0.33 0.625 0.739 0.625h3.963c1.011 1.506 2.727 2.5 4.673 2.5s3.662-0.994 4.673-2.5h1.463c0.408 0 0.739-0.28 0.739-0.625s-0.33-0.625-0.739-0.625h-0.856c0.142-0.398 0.233-0.817 0.282-1.25h3.188c0.345 0 0.625-0.28 0.625-0.625s-0.28-0.625-0.625-0.625zM6.65 7.461h3.936c0.345 0 0.625-0.28 0.625-0.625s-0.28-0.625-0.625-0.625h-3.053c0.789-0.771 1.864-1.25 3.053-1.25 2.199 0 4.006 1.636 4.312 3.75h-8.623c0.063-0.442 0.189-0.861 0.375-1.25zM10.586 13.711c-1.188 0-2.263-0.48-3.053-1.25h6.104c-0.789 0.77-1.864 1.25-3.052 1.25zM14.521 11.211h-7.872c-0.186-0.389-0.312-0.808-0.375-1.25h8.623c-0.063 0.442-0.189 0.861-0.376 1.25z"></path>
</g>
<g id="icon-hail">
	<path class="path1" d="M15.625 2.5c-0.207 0-0.413 0.015-0.617 0.044-1.167-1.59-3.009-2.544-5.008-2.544s-3.84 0.954-5.008 2.544c-0.204-0.029-0.409-0.044-0.617-0.044-2.412 0-4.375 1.963-4.375 4.375s1.963 4.375 4.375 4.375c0.535 0 1.058-0.098 1.551-0.286 1.131 0.986 2.57 1.536 4.074 1.536 1.506 0 2.943-0.55 4.074-1.536 0.493 0.189 1.016 0.286 1.551 0.286 2.412 0 4.375-1.963 4.375-4.375s-1.963-4.375-4.375-4.375zM15.625 10c-0.379 0-0.75-0.068-1.104-0.203l-0.703-0.27-0.566 0.495c-0.908 0.793-2.063 1.229-3.252 1.229s-2.344-0.436-3.252-1.229l-0.566-0.495-0.703 0.27c-0.352 0.135-0.724 0.203-1.104 0.203-1.724 0-3.125-1.402-3.125-3.125s1.401-3.125 3.125-3.125c0.148 0 0.293 0.011 0.439 0.031l0.741 0.107 0.444-0.604c0.95-1.293 2.408-2.035 4.001-2.035s3.052 0.741 4.001 2.034l0.444 0.605 0.742-0.107c0.145-0.020 0.29-0.031 0.438-0.031 1.724 0 3.125 1.402 3.125 3.125s-1.401 3.125-3.125 3.125zM3.75 12.5c-0.691 0-1.25 0.559-1.25 1.25s0.559 1.25 1.25 1.25 1.25-0.559 1.25-1.25-0.559-1.25-1.25-1.25zM10 13.75c-0.691 0-1.25 0.559-1.25 1.25s0.559 1.25 1.25 1.25 1.25-0.559 1.25-1.25-0.559-1.25-1.25-1.25zM16.25 12.5c-0.691 0-1.25 0.559-1.25 1.25s0.559 1.25 1.25 1.25 1.25-0.559 1.25-1.25-0.559-1.25-1.25-1.25zM13.75 17.5c-0.691 0-1.25 0.559-1.25 1.25s0.559 1.25 1.25 1.25 1.25-0.559 1.25-1.25-0.559-1.25-1.25-1.25zM6.25 17.5c-0.691 0-1.25 0.559-1.25 1.25s0.559 1.25 1.25 1.25 1.25-0.559 1.25-1.25-0.559-1.25-1.25-1.25z"></path>
</g>
<g id="icon-heavy-rain">
	<path class="path1" d="M15.625 2.5c-0.207 0-0.413 0.015-0.617 0.044-1.167-1.59-3.009-2.544-5.008-2.544s-3.84 0.954-5.008 2.544c-0.204-0.029-0.409-0.044-0.617-0.044-2.412 0-4.375 1.963-4.375 4.375s1.963 4.375 4.375 4.375c0.535 0 1.058-0.098 1.551-0.286 1.131 0.986 2.57 1.536 4.074 1.536 1.506 0 2.943-0.55 4.074-1.536 0.493 0.189 1.016 0.286 1.551 0.286 2.412 0 4.375-1.963 4.375-4.375s-1.963-4.375-4.375-4.375zM15.625 10c-0.669 0-1.286-0.215-1.794-0.573-0.917 1.105-2.283 1.823-3.831 1.823s-2.913-0.718-3.831-1.823c-0.508 0.358-1.126 0.573-1.794 0.573-1.726 0-3.125-1.399-3.125-3.125s1.399-3.125 3.125-3.125c0.422 0 0.823 0.086 1.189 0.238 0.829-1.618 2.494-2.738 4.436-2.738s3.607 1.12 4.435 2.738c0.367-0.151 0.768-0.238 1.19-0.238 1.726 0 3.125 1.399 3.125 3.125s-1.399 3.125-3.125 3.125zM8.789 18.75c0 0.691 0.559 1.25 1.25 1.25s1.25-0.559 1.25-1.25-1.25-2.5-1.25-2.5-1.25 1.809-1.25 2.5zM13.75 17.5c0 0.691 0.559 1.25 1.25 1.25s1.25-0.559 1.25-1.25-1.25-2.5-1.25-2.5-1.25 1.809-1.25 2.5zM3.75 15c0 0.691 0.559 1.25 1.25 1.25s1.25-0.559 1.25-1.25-1.25-2.5-1.25-2.5-1.25 1.809-1.25 2.5z"></path>
</g>
<g id="icon-heavy-snow">
	<path class="path1" d="M12.736 17.332l-0.703-0.405c0.021-0.122 0.037-0.247 0.037-0.376s-0.016-0.254-0.039-0.376l0.705-0.406c0.329-0.192 0.441-0.614 0.252-0.942-0.19-0.331-0.612-0.444-0.942-0.254l-0.71 0.41c-0.19-0.162-0.405-0.289-0.645-0.375v-0.816c0-0.382-0.31-0.691-0.691-0.691s-0.69 0.309-0.69 0.691v0.815c-0.239 0.085-0.455 0.214-0.645 0.376l-0.709-0.41c-0.331-0.19-0.754-0.078-0.944 0.253-0.19 0.329-0.076 0.752 0.254 0.942l0.702 0.405c-0.023 0.123-0.037 0.247-0.037 0.377s0.015 0.254 0.037 0.376l-0.701 0.405c-0.33 0.19-0.444 0.615-0.254 0.945s0.613 0.442 0.942 0.251l0.71-0.408c0.19 0.161 0.406 0.288 0.646 0.374v0.818c0 0.381 0.309 0.688 0.69 0.688s0.691-0.308 0.691-0.688v-0.818c0.239-0.085 0.457-0.212 0.645-0.376l0.71 0.41c0.33 0.19 0.752 0.078 0.942-0.251s0.078-0.752-0.252-0.945zM10 17.241c-0.381 0-0.691-0.31-0.691-0.691s0.31-0.689 0.691-0.689 0.69 0.308 0.69 0.689-0.309 0.691-0.69 0.691zM18.522 15.479l-0.472-0.125c-0.011-0.15-0.047-0.292-0.113-0.429l0.343-0.343c0.161-0.161 0.16-0.422 0-0.58-0.159-0.16-0.418-0.161-0.579 0l-0.343 0.342c-0.135-0.063-0.279-0.1-0.428-0.112l-0.125-0.471c-0.059-0.218-0.283-0.349-0.503-0.291s-0.347 0.284-0.29 0.503l0.125 0.465c-0.062 0.042-0.12 0.090-0.176 0.143-0.054 0.055-0.099 0.114-0.142 0.174l-0.465-0.125c-0.219-0.059-0.445 0.073-0.504 0.291-0.059 0.22 0.073 0.444 0.29 0.503l0.469 0.126c0.013 0.147 0.050 0.291 0.116 0.428l-0.344 0.344c-0.159 0.16-0.159 0.419 0.002 0.579s0.418 0.161 0.578 0.002l0.345-0.345c0.135 0.067 0.28 0.104 0.43 0.116l0.124 0.47c0.060 0.219 0.283 0.349 0.503 0.291 0.218-0.059 0.35-0.283 0.291-0.505l-0.125-0.465c0.059-0.041 0.119-0.088 0.174-0.142 0.054-0.055 0.099-0.115 0.142-0.175l0.466 0.125c0.219 0.059 0.444-0.072 0.502-0.29s-0.071-0.443-0.289-0.503zM17.122 15.74c-0.161 0.161-0.421 0.16-0.581 0-0.159-0.159-0.16-0.419 0-0.58 0.16-0.159 0.421-0.159 0.581 0 0.159 0.16 0.159 0.422 0 0.58zM4.646 13.379l-0.464 0.125c-0.043-0.059-0.088-0.118-0.142-0.173-0.055-0.054-0.114-0.1-0.175-0.142l0.125-0.466c0.059-0.219-0.072-0.444-0.288-0.502-0.22-0.059-0.444 0.072-0.503 0.29l-0.127 0.471c-0.149 0.012-0.291 0.049-0.427 0.113l-0.344-0.343c-0.161-0.161-0.42-0.16-0.579 0s-0.16 0.42 0 0.58l0.343 0.343c-0.064 0.137-0.102 0.281-0.113 0.429l-0.47 0.125c-0.22 0.060-0.35 0.283-0.291 0.503 0.059 0.218 0.284 0.347 0.504 0.29l0.464-0.126c0.041 0.063 0.088 0.121 0.144 0.176 0.054 0.054 0.112 0.102 0.173 0.142l-0.125 0.465c-0.059 0.22 0.072 0.446 0.29 0.505 0.22 0.059 0.443-0.072 0.501-0.291l0.127-0.469c0.149-0.012 0.293-0.050 0.43-0.115l0.343 0.343c0.16 0.161 0.418 0.158 0.579-0.002 0.159-0.159 0.161-0.418 0-0.579l-0.344-0.344c0.066-0.135 0.105-0.281 0.115-0.43l0.471-0.125c0.217-0.059 0.348-0.283 0.289-0.503-0.059-0.217-0.283-0.347-0.504-0.29zM3.459 14.491c-0.16 0.16-0.42 0.16-0.581 0-0.159-0.159-0.159-0.421 0-0.579 0.161-0.159 0.421-0.159 0.581 0s0.159 0.42 0 0.579zM20 6.875c0-2.412-1.963-4.375-4.375-4.375-0.207 0-0.413 0.015-0.617 0.044-1.167-1.59-3.009-2.544-5.008-2.544s-3.84 0.954-5.008 2.544c-0.204-0.029-0.409-0.044-0.617-0.044-2.412 0-4.375 1.963-4.375 4.375s1.963 4.375 4.375 4.375c0.535 0 1.058-0.098 1.551-0.286 1.131 0.986 2.57 1.536 4.074 1.536 1.506 0 2.943-0.55 4.074-1.536 0.493 0.189 1.016 0.286 1.551 0.286 2.412 0 4.375-1.963 4.375-4.375zM13.831 9.427c-0.917 1.105-2.283 1.823-3.831 1.823s-2.913-0.718-3.831-1.823c-0.508 0.358-1.126 0.573-1.794 0.573-1.726 0-3.125-1.399-3.125-3.125s1.399-3.125 3.125-3.125c0.422 0 0.823 0.086 1.189 0.238 0.829-1.618 2.494-2.738 4.436-2.738s3.607 1.12 4.435 2.738c0.367-0.151 0.768-0.238 1.19-0.238 1.726 0 3.125 1.399 3.125 3.125s-1.399 3.125-3.125 3.125c-0.669 0-1.286-0.215-1.794-0.573z"></path>
</g>
<g id="icon-light-rain">
	<path class="path1" d="M15.625 3.75c-0.207 0-0.413 0.015-0.617 0.044-1.167-1.59-3.009-2.544-5.008-2.544s-3.84 0.954-5.008 2.544c-0.204-0.029-0.409-0.044-0.617-0.044-2.412 0-4.375 1.963-4.375 4.375s1.963 4.375 4.375 4.375c0.535 0 1.058-0.098 1.551-0.286 1.131 0.986 2.57 1.536 4.074 1.536 1.506 0 2.943-0.55 4.074-1.536 0.493 0.189 1.016 0.286 1.551 0.286 2.412 0 4.375-1.963 4.375-4.375s-1.963-4.375-4.375-4.375zM15.625 11.25c-0.669 0-1.286-0.215-1.794-0.573-0.917 1.105-2.283 1.823-3.831 1.823s-2.913-0.718-3.831-1.823c-0.508 0.358-1.126 0.573-1.794 0.573-1.726 0-3.125-1.399-3.125-3.125s1.399-3.125 3.125-3.125c0.422 0 0.823 0.086 1.189 0.238 0.829-1.618 2.494-2.738 4.436-2.738s3.607 1.12 4.435 2.738c0.367-0.151 0.768-0.238 1.19-0.238 1.726 0 3.125 1.399 3.125 3.125s-1.399 3.125-3.125 3.125zM8.75 17.5c0 0.691 0.559 1.25 1.25 1.25s1.25-0.559 1.25-1.25-1.25-2.5-1.25-2.5-1.25 1.809-1.25 2.5z"></path>
</g>
<g id="icon-light-snow">
	<path class="path1" d="M12.736 17.332l-0.703-0.405c0.021-0.122 0.037-0.247 0.037-0.376s-0.016-0.254-0.039-0.376l0.705-0.406c0.329-0.192 0.441-0.614 0.252-0.942-0.19-0.331-0.612-0.444-0.942-0.254l-0.71 0.41c-0.19-0.162-0.405-0.289-0.645-0.375v-0.816c0-0.382-0.31-0.691-0.691-0.691s-0.69 0.309-0.69 0.691v0.815c-0.239 0.085-0.455 0.214-0.645 0.376l-0.709-0.41c-0.331-0.19-0.754-0.078-0.944 0.253-0.19 0.329-0.076 0.752 0.254 0.942l0.702 0.405c-0.023 0.123-0.037 0.247-0.037 0.377s0.015 0.254 0.037 0.376l-0.701 0.405c-0.33 0.19-0.444 0.615-0.254 0.945s0.613 0.442 0.942 0.251l0.71-0.408c0.19 0.161 0.406 0.288 0.646 0.374v0.818c0 0.381 0.309 0.688 0.69 0.688s0.691-0.308 0.691-0.688v-0.818c0.239-0.085 0.457-0.212 0.645-0.376l0.71 0.41c0.33 0.19 0.752 0.078 0.942-0.251s0.078-0.752-0.252-0.945zM10 17.241c-0.381 0-0.691-0.31-0.691-0.691s0.31-0.689 0.691-0.689 0.69 0.308 0.69 0.689-0.309 0.691-0.69 0.691zM15.625 2.5c-0.207 0-0.413 0.015-0.617 0.044-1.167-1.59-3.009-2.544-5.008-2.544s-3.84 0.954-5.008 2.544c-0.204-0.029-0.409-0.044-0.617-0.044-2.412 0-4.375 1.963-4.375 4.375s1.963 4.375 4.375 4.375c0.535 0 1.058-0.098 1.551-0.286 1.131 0.986 2.57 1.536 4.074 1.536 1.506 0 2.943-0.55 4.074-1.536 0.493 0.189 1.016 0.286 1.551 0.286 2.412 0 4.375-1.963 4.375-4.375s-1.963-4.375-4.375-4.375zM15.625 10c-0.669 0-1.286-0.215-1.794-0.573-0.917 1.105-2.283 1.823-3.831 1.823s-2.913-0.718-3.831-1.823c-0.508 0.358-1.126 0.573-1.794 0.573-1.726 0-3.125-1.399-3.125-3.125s1.399-3.125 3.125-3.125c0.422 0 0.823 0.086 1.189 0.238 0.829-1.618 2.494-2.738 4.436-2.738s3.607 1.12 4.435 2.738c0.367-0.151 0.768-0.238 1.19-0.238 1.726 0 3.125 1.399 3.125 3.125s-1.399 3.125-3.125 3.125z"></path>
</g>
<g id="icon-mostly-clear-day">
	<path class="path1" d="M8.125 2.5c0.345 0 0.625-0.28 0.625-0.625v-1.25c0-0.345-0.28-0.625-0.625-0.625s-0.625 0.28-0.625 0.625v1.25c0 0.345 0.28 0.625 0.625 0.625zM12.986 4.147l0.884-0.884c0.244-0.244 0.244-0.64 0-0.884s-0.64-0.244-0.884 0l-0.884 0.884c-0.244 0.244-0.244 0.64 0 0.884s0.64 0.244 0.884 0zM0.625 8.75h1.25c0.345 0 0.625-0.28 0.625-0.625s-0.28-0.625-0.625-0.625h-1.25c-0.345 0-0.625 0.28-0.625 0.625s0.28 0.625 0.625 0.625zM13.75 8.125c0 0.345 0.28 0.625 0.625 0.625h1.25c0.345 0 0.625-0.28 0.625-0.625s-0.28-0.625-0.625-0.625h-1.25c-0.345 0-0.625 0.28-0.625 0.625zM3.263 4.147c0.244 0.244 0.64 0.244 0.884 0s0.244-0.64 0-0.884l-0.884-0.884c-0.244-0.244-0.64-0.244-0.884 0s-0.244 0.64 0 0.884l0.884 0.884zM15.625 10c-0.207 0-0.413 0.015-0.617 0.044-0.655-0.894-1.528-1.576-2.518-2.012-0.050-2.368-1.985-4.282-4.365-4.282-2.412 0-4.375 1.963-4.375 4.375 0 0.681 0.169 1.318 0.449 1.892-2.329 0.095-4.199 2.007-4.199 4.358 0 2.412 1.963 4.375 4.375 4.375 0.535 0 1.058-0.098 1.551-0.286 1.131 0.986 2.57 1.536 4.074 1.536 1.506 0 2.943-0.55 4.074-1.536 0.493 0.189 1.016 0.286 1.551 0.286 2.412 0 4.375-1.963 4.375-4.375s-1.963-4.375-4.375-4.375zM8.125 5c1.555 0 2.834 1.139 3.075 2.627-0.391-0.078-0.791-0.127-1.2-0.127-1.794 0-3.457 0.774-4.624 2.080-0.232-0.436-0.376-0.926-0.376-1.455 0-1.726 1.399-3.125 3.125-3.125zM15.625 17.5c-0.669 0-1.286-0.215-1.794-0.573-0.917 1.105-2.283 1.823-3.831 1.823s-2.913-0.718-3.831-1.823c-0.508 0.358-1.126 0.573-1.794 0.573-1.726 0-3.125-1.399-3.125-3.125s1.399-3.125 3.125-3.125c0.303 0 0.588 0.057 0.864 0.138 0.11 0.031 0.221 0.055 0.325 0.098 0.171-0.334 0.386-0.64 0.624-0.928 0.913-1.099 2.271-1.809 3.812-1.809 0.396 0 0.775 0.057 1.143 0.145 0.413 0.098 0.802 0.246 1.165 0.441 0.91 0.483 1.657 1.232 2.127 2.151 0.367-0.151 0.768-0.237 1.19-0.237 1.726 0 3.125 1.399 3.125 3.125s-1.399 3.125-3.125 3.125z"></path>
</g>
<g id="icon-mostly-clear-night">
	<path class="path1" d="M16.995 10.241c0.19-0.142 0.383-0.281 0.556-0.453 0.516-0.517 0.909-1.146 1.164-1.869 0.081-0.226 0.024-0.48-0.147-0.649-0.17-0.171-0.422-0.229-0.649-0.148-1.383 0.488-2.878 0.156-3.902-0.869-1.025-1.025-1.359-2.52-0.869-3.902 0.080-0.227 0.023-0.479-0.148-0.65-0.169-0.169-0.422-0.228-0.649-0.148-0.724 0.257-1.353 0.649-1.869 1.165-1.31 1.309-1.718 3.164-1.269 4.836-1.689 0.216-3.208 1.113-4.22 2.492-0.204-0.029-0.409-0.044-0.617-0.044-2.412 0-4.375 1.963-4.375 4.375s1.963 4.375 4.375 4.375c0.535 0 1.058-0.098 1.551-0.286 1.131 0.986 2.57 1.536 4.074 1.536 1.506 0 2.943-0.55 4.074-1.536 0.493 0.189 1.016 0.286 1.551 0.286 2.412 0 4.375-1.963 4.375-4.375 0-1.931-1.266-3.556-3.005-4.134zM11.364 3.6c0.099-0.101 0.206-0.194 0.318-0.282-0.088 1.405 0.419 2.788 1.449 3.818s2.413 1.536 3.818 1.449c-0.539 0.687-1.281 1.114-2.075 1.296-1.069-1.357-2.641-2.212-4.373-2.351-0.479-1.327-0.199-2.869 0.863-3.93zM15.625 17.5c-0.669 0-1.286-0.215-1.794-0.573-0.917 1.105-2.283 1.823-3.831 1.823s-2.913-0.718-3.831-1.823c-0.508 0.358-1.125 0.573-1.794 0.573-1.726 0-3.125-1.399-3.125-3.125s1.399-3.125 3.125-3.125c0.422 0 0.823 0.085 1.189 0.237 0.789-1.537 2.334-2.613 4.153-2.717 0.095-0.006 0.188-0.020 0.283-0.020 0.505 0 0.989 0.079 1.445 0.218 0.617 0.189 1.179 0.496 1.668 0.893 0.466 0.378 0.857 0.842 1.165 1.363 0.052 0.088 0.111 0.171 0.158 0.263 0.367-0.151 0.768-0.237 1.19-0.237 1.726 0 3.125 1.399 3.125 3.125s-1.399 3.125-3.125 3.125z"></path>
</g>
<g id="icon-overcast">
	<path class="path1" d="M20 9.375c0-1.921-1.563-3.482-3.483-3.482-0.094 0-0.186 0.004-0.279 0.011-0.903-1.127-2.265-1.796-3.738-1.796s-2.834 0.669-3.738 1.796c-0.093-0.007-0.186-0.011-0.281-0.011-1.919-0-3.481 1.562-3.481 3.482 0 0.201 0.027 0.395 0.059 0.588-0.021 0.028-0.046 0.053-0.067 0.081-0.204-0.029-0.409-0.044-0.617-0.044-2.412 0-4.375 1.963-4.375 4.375s1.963 4.375 4.375 4.375c0.535 0 1.058-0.098 1.551-0.286 1.131 0.986 2.57 1.536 4.074 1.536 1.506 0 2.943-0.55 4.074-1.536 0.493 0.189 1.016 0.286 1.551 0.286 2.412 0 4.375-1.963 4.375-4.375 0-1.003-0.353-1.917-0.924-2.656 0.57-0.621 0.924-1.439 0.924-2.344zM15.625 17.5c-0.669 0-1.286-0.215-1.794-0.573-0.917 1.105-2.283 1.823-3.831 1.823s-2.913-0.718-3.831-1.823c-0.508 0.358-1.125 0.573-1.794 0.573-1.726 0-3.125-1.399-3.125-3.125s1.399-3.125 3.125-3.125c0.422 0 0.823 0.085 1.189 0.237 0.022-0.041 0.049-0.078 0.071-0.118 0.22-0.401 0.491-0.769 0.807-1.095 0.902-0.934 2.155-1.523 3.558-1.523 1.942 0 3.607 1.12 4.435 2.737 0.221-0.090 0.456-0.149 0.698-0.188l0.492-0.049c0.482 0 0.933 0.119 1.34 0.313 0.442 0.212 0.821 0.522 1.119 0.906 0.41 0.528 0.666 1.186 0.666 1.907 0 1.726-1.399 3.125-3.125 3.125zM18.186 10.845c-0.722-0.526-1.602-0.845-2.561-0.845-0.207 0-0.413 0.015-0.617 0.044-1.167-1.59-3.009-2.544-5.008-2.544-1.333 0-2.59 0.431-3.63 1.185 0.292-0.893 1.122-1.542 2.112-1.542 0.303 0 0.588 0.061 0.85 0.169 0.593-1.155 1.782-1.954 3.169-1.954s2.576 0.799 3.167 1.954c0.263-0.108 0.55-0.169 0.85-0.169 1.234 0 2.233 0.999 2.233 2.232 0 0.566-0.217 1.076-0.564 1.47z"></path>
</g>
<g id="icon-thunder">
	<path class="path1" d="M15.625 2.5c-0.207 0-0.413 0.015-0.617 0.044-1.167-1.59-3.009-2.544-5.008-2.544s-3.84 0.954-5.008 2.544c-0.204-0.029-0.409-0.044-0.617-0.044-2.412 0-4.375 1.963-4.375 4.375s1.963 4.375 4.375 4.375c0.535 0 1.058-0.098 1.551-0.286 0.48 0.418 1.025 0.741 1.598 0.993l0.973-0.972c-0.916-0.298-1.725-0.831-2.328-1.558-0.508 0.358-1.125 0.573-1.794 0.573-1.726 0-3.125-1.399-3.125-3.125s1.399-3.125 3.125-3.125c0.422 0 0.823 0.086 1.189 0.238 0.829-1.618 2.494-2.738 4.436-2.738s3.607 1.12 4.435 2.738c0.367-0.151 0.768-0.238 1.19-0.238 1.726 0 3.125 1.399 3.125 3.125s-1.399 3.125-3.125 3.125c-0.669 0-1.286-0.215-1.794-0.573-0.405 0.489-0.911 0.885-1.47 1.195l-0.525 1.576c0.815-0.256 1.582-0.662 2.238-1.234 0.493 0.189 1.016 0.286 1.551 0.286 2.412 0 4.375-1.963 4.375-4.375s-1.963-4.375-4.375-4.375zM7.5 13.75l1.25 1.25-1.25 3.75 3.75-3.75-1.25-1.25 1.25-3.75-3.75 3.75z"></path>
</g>
<g id="icon-envelope-o">
	<path class="path1" d="M0 16.786v-12.143q0-0.737 0.525-1.261t1.261-0.525h16.429q0.737 0 1.261 0.525t0.525 1.261v12.143q0 0.737-0.525 1.261t-1.261 0.525h-16.429q-0.737 0-1.261-0.525t-0.525-1.261zM1.429 16.786q0 0.145 0.106 0.251t0.251 0.106h16.429q0.145 0 0.251-0.106t0.106-0.251v-8.571q-0.357 0.402-0.77 0.737-2.991 2.299-4.754 3.772-0.569 0.48-0.926 0.748t-0.965 0.541-1.144 0.273h-0.022q-0.536 0-1.144-0.273t-0.965-0.541-0.926-0.748q-1.763-1.473-4.754-3.772-0.413-0.335-0.77-0.737v8.571zM1.429 4.643q0 1.875 1.641 3.17 2.154 1.696 4.475 3.538 0.067 0.056 0.391 0.329t0.513 0.419 0.497 0.352 0.564 0.307 0.48 0.1h0.022q0.223 0 0.48-0.1t0.564-0.307 0.497-0.352 0.513-0.419 0.391-0.329q2.321-1.842 4.475-3.538 0.603-0.48 1.122-1.289t0.519-1.468v-0.273t-0.006-0.145-0.033-0.14-0.061-0.1-0.1-0.084-0.156-0.028h-16.429q-0.145 0-0.251 0.106t-0.106 0.251z"></path>
</g>
<g id="icon-user">
	<path class="path1" d="M0 15.681q0-0.592 0.039-1.155t0.156-1.217 0.296-1.211 0.48-1.088 0.692-0.904 0.954-0.597 1.244-0.223q0.1 0 0.469 0.24t0.831 0.536 1.205 0.536 1.49 0.24 1.49-0.24 1.205-0.536 0.831-0.536 0.469-0.24q0.681 0 1.244 0.223t0.954 0.597 0.692 0.904 0.48 1.088 0.296 1.211 0.156 1.217 0.039 1.155q0 1.339-0.815 2.115t-2.165 0.776h-9.754q-1.35 0-2.165-0.776t-0.815-2.115zM3.571 5.714q0-1.775 1.256-3.030t3.030-1.256 3.030 1.256 1.256 3.030-1.256 3.030-3.030 1.256-3.030-1.256-1.256-3.030z"></path>
</g>
<g id="icon-gear">
	<path class="path1" d="M0 11.217v-2.478q0-0.134 0.089-0.257t0.212-0.145l2.076-0.313q0.156-0.513 0.435-1.027-0.446-0.636-1.194-1.54-0.112-0.134-0.112-0.268 0-0.112 0.1-0.257 0.29-0.402 1.099-1.2t1.055-0.798q0.145 0 0.29 0.112l1.54 1.194q0.491-0.257 1.016-0.424 0.179-1.518 0.324-2.076 0.078-0.313 0.402-0.313h2.478q0.156 0 0.273 0.095t0.128 0.24l0.313 2.054q0.547 0.179 1.004 0.413l1.585-1.194q0.1-0.1 0.268-0.1 0.145 0 0.279 0.112 1.44 1.328 1.842 1.897 0.078 0.089 0.078 0.246 0 0.134-0.089 0.257-0.167 0.234-0.569 0.742t-0.603 0.787q0.29 0.558 0.458 1.094l2.042 0.313q0.145 0.022 0.234 0.14t0.089 0.262v2.478q0 0.134-0.089 0.257t-0.223 0.145l-2.065 0.313q-0.212 0.603-0.435 1.016 0.391 0.558 1.194 1.54 0.112 0.134 0.112 0.279t-0.1 0.257q-0.301 0.413-1.105 1.205t-1.049 0.792q-0.134 0-0.29-0.1l-1.54-1.205q-0.491 0.257-1.016 0.424-0.179 1.518-0.324 2.076-0.078 0.313-0.402 0.313h-2.478q-0.156 0-0.273-0.095t-0.128-0.24l-0.313-2.054q-0.547-0.179-1.004-0.413l-1.574 1.194q-0.112 0.1-0.279 0.1-0.156 0-0.279-0.123-1.406-1.272-1.842-1.875-0.078-0.112-0.078-0.257 0-0.134 0.089-0.257 0.167-0.234 0.569-0.742t0.603-0.787q-0.301-0.558-0.458-1.105l-2.042-0.301q-0.145-0.022-0.234-0.14t-0.089-0.262zM5.714 10q0 1.183 0.837 2.020t2.020 0.837 2.020-0.837 0.837-2.020-0.837-2.020-2.020-0.837-2.020 0.837-0.837 2.020z"></path>
</g>
<g id="icon-road">
	<path class="path1" d="M0.558 16.328q0-0.603 0.29-1.295l4.654-11.652q0.089-0.212 0.29-0.368t0.424-0.156h3.783q-0.145 0-0.257 0.106t-0.123 0.251l-0.167 2.143q-0.011 0.156 0.089 0.257t0.246 0.1h1.853q0.145 0 0.246-0.1t0.089-0.257l-0.167-2.143q-0.011-0.145-0.123-0.251t-0.257-0.106h3.783q0.223 0 0.424 0.156t0.29 0.368l4.654 11.652q0.29 0.692 0.29 1.295 0 0.815-0.513 0.815h-7.857q0.145 0 0.246-0.106t0.089-0.251l-0.223-2.857q-0.011-0.145-0.123-0.251t-0.257-0.106h-3.036q-0.145 0-0.257 0.106t-0.123 0.251l-0.223 2.857q-0.011 0.145 0.089 0.251t0.246 0.106h-7.857q-0.513 0-0.513-0.815zM9.029 11.116q-0.011 0.134 0.089 0.223t0.234 0.089h2.723q0.134 0 0.234-0.089t0.089-0.223v-0.045l-0.268-3.571q-0.011-0.145-0.123-0.251t-0.257-0.106h-2.076q-0.145 0-0.257 0.106t-0.123 0.251l-0.268 3.571v0.045z"></path>
</g>
<g id="icon-download">
	<path class="path1" d="M0 16.071v-3.571q0-0.446 0.313-0.759t0.759-0.313h5.19l1.507 1.518q0.647 0.625 1.518 0.625t1.518-0.625l1.518-1.518h5.179q0.446 0 0.759 0.313t0.313 0.759v3.571q0 0.446-0.313 0.759t-0.759 0.313h-16.429q-0.446 0-0.759-0.313t-0.313-0.759zM3.627 6.15q0.19-0.435 0.658-0.435h2.857v-5q0-0.29 0.212-0.502t0.502-0.212h2.857q0.29 0 0.502 0.212t0.212 0.502v5h2.857q0.469 0 0.658 0.435 0.19 0.458-0.156 0.781l-5 5q-0.201 0.212-0.502 0.212t-0.502-0.212l-5-5q-0.346-0.324-0.156-0.781zM12.857 15q0 0.29 0.212 0.502t0.502 0.212 0.502-0.212 0.212-0.502-0.212-0.502-0.502-0.212-0.502 0.212-0.212 0.502zM15.714 15q0 0.29 0.212 0.502t0.502 0.212 0.502-0.212 0.212-0.502-0.212-0.502-0.502-0.212-0.502 0.212-0.212 0.502z"></path>
</g>
<g id="icon-list-alt">
	<path class="path1" d="M0 15.357v-12.143q0-0.737 0.525-1.261t1.261-0.525h16.429q0.737 0 1.261 0.525t0.525 1.261v12.143q0 0.737-0.525 1.261t-1.261 0.525h-16.429q-0.737 0-1.261-0.525t-0.525-1.261zM1.429 15.357q0 0.145 0.106 0.251t0.251 0.106h16.429q0.145 0 0.251-0.106t0.106-0.251v-9.286q0-0.145-0.106-0.251t-0.251-0.106h-16.429q-0.145 0-0.251 0.106t-0.106 0.251v9.286zM2.857 13.929v-0.714q0-0.145 0.106-0.251t0.251-0.106h0.714q0.145 0 0.251 0.106t0.106 0.251v0.714q0 0.145-0.106 0.251t-0.251 0.106h-0.714q-0.145 0-0.251-0.106t-0.106-0.251zM2.857 11.071v-0.714q0-0.145 0.106-0.251t0.251-0.106h0.714q0.145 0 0.251 0.106t0.106 0.251v0.714q0 0.145-0.106 0.251t-0.251 0.106h-0.714q-0.145 0-0.251-0.106t-0.106-0.251zM2.857 8.214v-0.714q0-0.145 0.106-0.251t0.251-0.106h0.714q0.145 0 0.251 0.106t0.106 0.251v0.714q0 0.145-0.106 0.251t-0.251 0.106h-0.714q-0.145 0-0.251-0.106t-0.106-0.251zM5.714 13.929v-0.714q0-0.145 0.106-0.251t0.251-0.106h10.714q0.145 0 0.251 0.106t0.106 0.251v0.714q0 0.145-0.106 0.251t-0.251 0.106h-10.714q-0.145 0-0.251-0.106t-0.106-0.251zM5.714 11.071v-0.714q0-0.145 0.106-0.251t0.251-0.106h10.714q0.145 0 0.251 0.106t0.106 0.251v0.714q0 0.145-0.106 0.251t-0.251 0.106h-10.714q-0.145 0-0.251-0.106t-0.106-0.251zM5.714 8.214v-0.714q0-0.145 0.106-0.251t0.251-0.106h10.714q0.145 0 0.251 0.106t0.106 0.251v0.714q0 0.145-0.106 0.251t-0.251 0.106h-10.714q-0.145 0-0.251-0.106t-0.106-0.251z"></path>
</g>
<g id="icon-lock">
	<path class="path1" d="M0 16.071v-6.429q0-0.446 0.313-0.759t0.759-0.313h0.357v-2.143q0-2.054 1.473-3.527t3.527-1.473 3.527 1.473 1.473 3.527v2.143h0.357q0.446 0 0.759 0.313t0.313 0.759v6.429q0 0.446-0.313 0.759t-0.759 0.313h-10.714q-0.446 0-0.759-0.313t-0.313-0.759zM3.571 8.571h5.714v-2.143q0-1.183-0.837-2.020t-2.020-0.837-2.020 0.837-0.837 2.020v2.143z"></path>
</g>
<g id="icon-book">
	<path class="path1" d="M0.112 15.089q0-0.045 0.033-0.301t0.045-0.413q0.011-0.089-0.033-0.24t-0.033-0.218q0.022-0.123 0.089-0.234t0.184-0.262 0.184-0.262q0.257-0.424 0.502-1.021t0.335-1.021q0.033-0.112 0.006-0.335t-0.006-0.313q0.033-0.123 0.19-0.313t0.19-0.257q0.234-0.402 0.469-1.027t0.279-1.004q0.011-0.1-0.028-0.357t0.006-0.313q0.045-0.145 0.246-0.34t0.246-0.251q0.212-0.29 0.474-0.943t0.307-1.077q0.011-0.089-0.033-0.285t-0.022-0.296q0.022-0.089 0.1-0.201t0.201-0.257 0.19-0.234q0.089-0.134 0.184-0.34t0.167-0.391 0.179-0.402 0.218-0.357 0.296-0.262 0.402-0.128 0.53 0.061l-0.011 0.033q0.424-0.1 0.569-0.1h8.493q0.826 0 1.272 0.625t0.201 1.451l-3.058 10.112q-0.402 1.328-0.798 1.713t-1.434 0.385h-9.699q-0.301 0-0.424 0.167-0.123 0.179-0.011 0.48 0.268 0.781 1.607 0.781h10.301q0.324 0 0.625-0.173t0.391-0.463l3.348-11.016q0.078-0.246 0.056-0.636 0.424 0.167 0.658 0.48 0.446 0.636 0.201 1.44l-3.069 10.112q-0.212 0.714-0.854 1.2t-1.367 0.485h-10.301q-0.859 0-1.657-0.597t-1.11-1.468q-0.268-0.748-0.022-1.417zM5.491 8.214q-0.045 0.145 0.022 0.251t0.223 0.106h6.786q0.145 0 0.285-0.106t0.184-0.251l0.234-0.714q0.045-0.145-0.022-0.251t-0.223-0.106h-6.786q-0.145 0-0.285 0.106t-0.184 0.251zM6.417 5.357q-0.045 0.145 0.022 0.251t0.223 0.106h6.786q0.145 0 0.285-0.106t0.184-0.251l0.234-0.714q0.045-0.145-0.022-0.251t-0.223-0.106h-6.786q-0.145 0-0.285 0.106t-0.184 0.251z"></path>
</g>
<g id="icon-map-marker">
	<path class="path1" d="M0 7.143q0-2.366 1.674-4.040t4.040-1.674 4.040 1.674 1.674 4.040q0 1.217-0.368 1.998l-4.062 8.638q-0.179 0.368-0.53 0.58t-0.753 0.212-0.753-0.212-0.519-0.58l-4.074-8.638q-0.368-0.781-0.368-1.998zM2.857 7.143q0 1.183 0.837 2.020t2.020 0.837 2.020-0.837 0.837-2.020-0.837-2.020-2.020-0.837-2.020 0.837-0.837 2.020z"></path>
</g>
<g id="icon-edit">
	<path class="path1" d="M0 13.929v-9.286q0-1.328 0.943-2.271t2.271-0.943h9.286q0.703 0 1.306 0.279 0.167 0.078 0.201 0.257 0.033 0.19-0.1 0.324l-0.547 0.547q-0.156 0.156-0.357 0.089-0.257-0.067-0.502-0.067h-9.286q-0.737 0-1.261 0.525t-0.525 1.261v9.286q0 0.737 0.525 1.261t1.261 0.525h9.286q0.737 0 1.261-0.525t0.525-1.261v-1.406q0-0.145 0.1-0.246l0.714-0.714q0.167-0.167 0.391-0.078t0.223 0.324v2.121q0 1.328-0.943 2.271t-2.271 0.943h-9.286q-1.328 0-2.271-0.943t-0.943-2.271zM7.143 14.286v-3.214l7.5-7.5 3.214 3.214-7.5 7.5h-3.214zM8.214 12.143h1.071v1.071h0.625l1.295-1.295-1.696-1.696-1.295 1.295v0.625zM10.536 9.464q0.179 0.179 0.368-0.011l3.906-3.906q0.19-0.19 0.011-0.368t-0.368 0.011l-3.906 3.906q-0.19 0.19-0.011 0.368zM15.357 2.857l1.027-1.027q0.313-0.313 0.759-0.313t0.759 0.313l1.696 1.696q0.313 0.313 0.313 0.759t-0.313 0.759l-1.027 1.027z"></path>
</g>
<g id="icon-expand">
	<path class="path1" d="M0 17.857v-5q0-0.29 0.212-0.502t0.502-0.212 0.502 0.212l1.607 1.607 3.705-3.705q0.112-0.112 0.257-0.112t0.257 0.112l1.272 1.272q0.112 0.112 0.112 0.257t-0.112 0.257l-3.705 3.705 1.607 1.607q0.212 0.212 0.212 0.502t-0.212 0.502-0.502 0.212h-5q-0.29 0-0.502-0.212t-0.212-0.502zM8.717 8.214q0-0.145 0.112-0.257l3.705-3.705-1.607-1.607q-0.212-0.212-0.212-0.502t0.212-0.502 0.502-0.212h5q0.29 0 0.502 0.212t0.212 0.502v5q0 0.29-0.212 0.502t-0.502 0.212-0.502-0.212l-1.607-1.607-3.705 3.705q-0.112 0.112-0.257 0.112t-0.257-0.112l-1.272-1.272q-0.112-0.112-0.112-0.257z"></path>
</g>
<g id="icon-compress">
	<path class="path1" d="M0.145 16.786q0-0.145 0.112-0.257l3.705-3.705-1.607-1.607q-0.212-0.212-0.212-0.502t0.212-0.502 0.502-0.212h5q0.29 0 0.502 0.212t0.212 0.502v5q0 0.29-0.212 0.502t-0.502 0.212-0.502-0.212l-1.607-1.607-3.705 3.705q-0.112 0.112-0.257 0.112t-0.257-0.112l-1.272-1.272q-0.112-0.112-0.112-0.257zM8.571 9.286v-5q0-0.29 0.212-0.502t0.502-0.212 0.502 0.212l1.607 1.607 3.705-3.705q0.112-0.112 0.257-0.112t0.257 0.112l1.272 1.272q0.112 0.112 0.112 0.257t-0.112 0.257l-3.705 3.705 1.607 1.607q0.212 0.212 0.212 0.502t-0.212 0.502-0.502 0.212h-5q-0.29 0-0.502-0.212t-0.212-0.502z"></path>
</g>
<g id="icon-sign-out">
	<path class="path1" d="M0 13.929v-7.857q0-1.328 0.943-2.271t2.271-0.943h3.571q0.145 0 0.251 0.106t0.106 0.251q0 0.045 0.011 0.223t0.006 0.296-0.033 0.262-0.112 0.218-0.229 0.073h-3.571q-0.737 0-1.261 0.525t-0.525 1.261v7.857q0 0.737 0.525 1.261t1.261 0.525h3.482t0.128 0.011 0.128 0.033 0.089 0.061 0.078 0.1 0.022 0.151q0 0.045 0.011 0.223t0.006 0.296-0.033 0.262-0.112 0.218-0.229 0.073h-3.571q-1.328 0-2.271-0.943t-0.943-2.271zM4.286 12.143v-4.286q0-0.29 0.212-0.502t0.502-0.212h5v-3.214q0-0.29 0.212-0.502t0.502-0.212 0.502 0.212l6.071 6.071q0.212 0.212 0.212 0.502t-0.212 0.502l-6.071 6.071q-0.212 0.212-0.502 0.212t-0.502-0.212-0.212-0.502v-3.214h-5q-0.29 0-0.502-0.212t-0.212-0.502z"></path>
</g>
<g id="icon-linkedin-square">
	<path class="path1" d="M0 15.357v-10.714q0-1.328 0.943-2.271t2.271-0.943h10.714q1.328 0 2.271 0.943t0.943 2.271v10.714q0 1.328-0.943 2.271t-2.271 0.943h-10.714q-1.328 0-2.271-0.943t-0.943-2.271zM2.489 5.647q0 0.569 0.396 0.954t1.032 0.385h0.011q0.658 0 1.060-0.385t0.402-0.954q-0.011-0.58-0.402-0.96t-1.038-0.379-1.055 0.379-0.407 0.96zM2.645 15.781h2.578v-7.746h-2.578v7.746zM6.641 15.781h2.578v-4.33q0-0.424 0.078-0.625 0.167-0.391 0.502-0.664t0.826-0.273q1.295 0 1.295 1.752v4.141h2.578v-4.442q0-1.719-0.815-2.6t-2.154-0.882q-1.518 0-2.333 1.306h0.022v-1.127h-2.578q0.033 0.737 0 7.746z"></path>
</g>
<g id="icon-external-link">
	<path class="path1" d="M0 13.929v-9.286q0-1.328 0.943-2.271t2.271-0.943h7.857q0.156 0 0.257 0.1t0.1 0.257v0.714q0 0.156-0.1 0.257t-0.257 0.1h-7.857q-0.737 0-1.261 0.525t-0.525 1.261v9.286q0 0.737 0.525 1.261t1.261 0.525h9.286q0.737 0 1.261-0.525t0.525-1.261v-3.571q0-0.156 0.1-0.257t0.257-0.1h0.714q0.156 0 0.257 0.1t0.1 0.257v3.571q0 1.328-0.943 2.271t-2.271 0.943h-9.286q-1.328 0-2.271-0.943t-0.943-2.271zM7.645 10.714q0-0.145 0.112-0.257l7.277-7.277-1.964-1.964q-0.212-0.212-0.212-0.502t0.212-0.502 0.502-0.212h5.714q0.29 0 0.502 0.212t0.212 0.502v5.714q0 0.29-0.212 0.502t-0.502 0.212-0.502-0.212l-1.964-1.964-7.277 7.277q-0.112 0.112-0.257 0.112t-0.257-0.112l-1.272-1.272q-0.112-0.112-0.112-0.257z"></path>
</g>
<g id="icon-sign-in">
	<path class="path1" d="M0 12.143v-4.286q0-0.29 0.212-0.502t0.502-0.212h5v-3.214q0-0.29 0.212-0.502t0.502-0.212 0.502 0.212l6.071 6.071q0.212 0.212 0.212 0.502t-0.212 0.502l-6.071 6.071q-0.212 0.212-0.502 0.212t-0.502-0.212-0.212-0.502v-3.214h-5q-0.29 0-0.502-0.212t-0.212-0.502zM9.983 16.267q0.006-0.117 0.033-0.262t0.112-0.218 0.229-0.073h3.571q0.737 0 1.261-0.525t0.525-1.261v-7.857q0-0.737-0.525-1.261t-1.261-0.525h-3.482t-0.128-0.011-0.128-0.033-0.089-0.061-0.078-0.1-0.022-0.151q0-0.045-0.011-0.223t-0.006-0.296 0.033-0.262 0.112-0.218 0.229-0.073h3.571q1.328 0 2.271 0.943t0.943 2.271v7.857q0 1.328-0.943 2.271t-2.271 0.943h-3.571q-0.145 0-0.251-0.106t-0.106-0.251q0-0.045-0.011-0.223t-0.006-0.296z"></path>
</g>
<g id="icon-phone">
	<path class="path1" d="M0 5.212q0-1.027 0.569-2.076 0.625-1.127 1.183-1.362 0.279-0.123 0.765-0.234t0.787-0.112q0.156 0 0.234 0.033 0.201 0.067 0.592 0.848 0.123 0.212 0.335 0.603t0.391 0.709 0.346 0.597q0.033 0.045 0.195 0.279t0.24 0.396 0.078 0.318q0 0.223-0.318 0.558t-0.692 0.614-0.692 0.592-0.318 0.513q0 0.1 0.056 0.251t0.095 0.229 0.156 0.268 0.128 0.212q0.848 1.529 1.942 2.623t2.623 1.942q0.022 0.011 0.212 0.128t0.268 0.156 0.229 0.095 0.251 0.056q0.201 0 0.513-0.318t0.592-0.692 0.614-0.692 0.558-0.318q0.156 0 0.318 0.078t0.396 0.24 0.279 0.195q0.279 0.167 0.597 0.346t0.709 0.391 0.603 0.335q0.781 0.391 0.848 0.592 0.033 0.078 0.033 0.234 0 0.301-0.112 0.787t-0.234 0.765q-0.234 0.558-1.362 1.183-1.049 0.569-2.076 0.569-0.301 0-0.586-0.039t-0.642-0.14-0.53-0.162-0.619-0.229-0.547-0.201q-1.094-0.391-1.953-0.926-1.429-0.882-2.952-2.405t-2.405-2.952q-0.536-0.859-0.926-1.953-0.033-0.1-0.201-0.547t-0.229-0.619-0.162-0.53-0.14-0.642-0.039-0.586z"></path>
</g>
<g id="icon-twitter">
	<path class="path1" d="M0.491 15.525q0.391 0.045 0.871 0.045 2.511 0 4.475-1.54-1.172-0.022-2.098-0.72t-1.272-1.78q0.368 0.056 0.681 0.056 0.48 0 0.949-0.123-1.25-0.257-2.070-1.244t-0.82-2.294v-0.045q0.759 0.424 1.629 0.458-0.737-0.491-1.172-1.283t-0.435-1.719q0-0.982 0.491-1.819 1.35 1.663 3.287 2.662t4.146 1.11q-0.089-0.424-0.089-0.826 0-1.496 1.055-2.55t2.55-1.055q1.563 0 2.634 1.138 1.217-0.234 2.288-0.871-0.413 1.283-1.585 1.987 1.038-0.112 2.076-0.558-0.748 1.094-1.808 1.864 0.011 0.156 0.011 0.469 0 1.451-0.424 2.896t-1.289 2.773-2.059 2.349-2.879 1.629-3.605 0.608q-3.025 0-5.536-1.618z"></path>
</g>
<g id="icon-pinterest">
	<path class="path1" d="M0 10q0-2.333 1.15-4.302t3.119-3.119 4.302-1.15 4.302 1.15 3.119 3.119 1.15 4.302-1.15 4.302-3.119 3.119-4.302 1.15q-1.239 0-2.433-0.357 0.658-1.038 0.871-1.83 0.1-0.379 0.603-2.355 0.223 0.435 0.815 0.753t1.272 0.318q1.35 0 2.411-0.765t1.641-2.104 0.58-3.013q0-1.272-0.664-2.388t-1.925-1.819-2.846-0.703q-1.172 0-2.188 0.324t-1.724 0.859-1.217 1.233-0.748 1.445-0.24 1.496q0 1.161 0.446 2.042t1.306 1.239q0.335 0.134 0.424-0.223 0.022-0.078 0.089-0.346t0.089-0.335q0.067-0.257-0.123-0.48-0.569-0.681-0.569-1.685 0-1.685 1.166-2.896t3.052-1.211q1.685 0 2.628 0.915t0.943 2.377q0 1.897-0.765 3.225t-1.959 1.328q-0.681 0-1.094-0.485t-0.257-1.166q0.089-0.391 0.296-1.044t0.335-1.15 0.128-0.843q0-0.558-0.301-0.926t-0.859-0.368q-0.692 0-1.172 0.636t-0.48 1.585q0 0.815 0.279 1.362l-1.105 4.665q-0.19 0.781-0.145 1.975-2.299-1.016-3.717-3.136t-1.417-4.721z"></path>
</g>
<g id="icon-google-plus">
	<path class="path1" d="M0.357 15.112q0-0.904 0.497-1.674t1.323-1.283q1.462-0.915 4.509-1.116-0.357-0.469-0.53-0.826t-0.173-0.815q0-0.402 0.234-0.949-0.513 0.045-0.759 0.045-1.652 0-2.785-1.077t-1.133-2.729q0-0.915 0.402-1.775t1.105-1.462q0.859-0.737 2.037-1.094t2.427-0.357h4.665l-1.54 0.982h-1.462q0.826 0.703 1.25 1.484t0.424 1.786q0 0.804-0.273 1.445t-0.658 1.038-0.776 0.725-0.664 0.686-0.273 0.737q0 0.402 0.357 0.787t0.865 0.759 1.010 0.82 0.859 1.161 0.357 1.585q0 1.004-0.536 1.931-0.804 1.362-2.355 2.003t-3.326 0.642q-1.473 0-2.751-0.463t-1.914-1.535q-0.413-0.67-0.413-1.462zM2.433 14.598q0 0.781 0.391 1.378t1.021 0.926 1.328 0.491 1.423 0.162q0.647 0 1.244-0.145t1.105-0.435 0.815-0.815 0.307-1.217q0-0.279-0.078-0.547t-0.162-0.469-0.301-0.463-0.329-0.391-0.43-0.385-0.407-0.324-0.463-0.335-0.407-0.29q-0.179-0.022-0.536-0.022-0.592 0-1.172 0.078t-1.2 0.279-1.083 0.513-0.765 0.831-0.301 1.177zM3.616 3.504q0 0.513 0.112 1.088t0.352 1.15 0.58 1.032 0.837 0.748 1.077 0.29q0.424 0 0.871-0.184t0.737-0.485q0.592-0.636 0.592-1.775 0-0.647-0.19-1.395t-0.541-1.445-0.943-1.155-1.306-0.458q-0.469 0-0.921 0.218t-0.731 0.586q-0.525 0.658-0.525 1.786zM12.098 8.984v-1.205h2.366v-2.422h1.172v2.422h2.377v1.205h-2.377v2.444h-1.172v-2.444h-2.366z"></path>
</g>
<g id="icon-dashboard">
	<path class="path1" d="M0 12.857q0-2.031 0.792-3.884t2.132-3.192 3.192-2.132 3.884-0.792 3.884 0.792 3.192 2.132 2.132 3.192 0.792 3.884q0 2.913-1.574 5.391-0.212 0.324-0.603 0.324h-15.647q-0.391 0-0.603-0.324-1.574-2.467-1.574-5.391zM1.429 12.857q0 0.592 0.419 1.010t1.010 0.419 1.010-0.419 0.419-1.010-0.419-1.010-1.010-0.419-1.010 0.419-0.419 1.010zM3.571 7.857q0 0.592 0.419 1.010t1.010 0.419 1.010-0.419 0.419-1.010-0.419-1.010-1.010-0.419-1.010 0.419-0.419 1.010zM7.924 14.453q-0.223 0.859 0.223 1.629t1.306 0.993 1.629-0.223 0.993-1.306q0.179-0.67-0.067-1.306t-0.804-1.016l1.127-4.263q0.067-0.29-0.084-0.541t-0.43-0.329-0.536 0.073-0.335 0.441l-1.127 4.263q-0.67 0.056-1.194 0.485t-0.703 1.099zM8.571 5.714q0 0.592 0.419 1.010t1.010 0.419 1.010-0.419 0.419-1.010-0.419-1.010-1.010-0.419-1.010 0.419-0.419 1.010zM13.571 7.857q0 0.592 0.419 1.010t1.010 0.419 1.010-0.419 0.419-1.010-0.419-1.010-1.010-0.419-1.010 0.419-0.419 1.010zM15.714 12.857q0 0.592 0.419 1.010t1.010 0.419 1.010-0.419 0.419-1.010-0.419-1.010-1.010-0.419-1.010 0.419-0.419 1.010z"></path>
</g>
<g id="icon-paste">
	<path class="path1" d="M0 16.071v-15q0-0.446 0.313-0.759t0.759-0.313h12.143q0.446 0 0.759 0.313t0.313 0.759v3.661q0.234 0.145 0.402 0.313l4.554 4.554q0.313 0.313 0.536 0.848t0.223 0.982v7.5q0 0.446-0.313 0.759t-0.759 0.313h-10.714q-0.446 0-0.759-0.313t-0.313-0.759v-1.786h-6.071q-0.446 0-0.759-0.313t-0.313-0.759zM2.857 2.5q0 0.145 0.106 0.251t0.251 0.106h7.857q0.145 0 0.251-0.106t0.106-0.251v-0.714q0-0.145-0.106-0.251t-0.251-0.106h-7.857q-0.145 0-0.251 0.106t-0.106 0.251v0.714zM8.571 18.571h10v-7.143h-4.643q-0.446 0-0.759-0.313t-0.313-0.759v-4.643h-4.286v12.857zM14.286 10h3.337l-3.337-3.337v3.337z"></path>
</g>
<g id="icon-angle-left">
	<path class="path1" d="M0.502 10.714q0-0.145 0.112-0.257l5.201-5.201q0.112-0.112 0.257-0.112t0.257 0.112l0.558 0.558q0.112 0.112 0.112 0.257t-0.112 0.257l-4.386 4.386 4.386 4.386q0.112 0.112 0.112 0.257t-0.112 0.257l-0.558 0.558q-0.112 0.112-0.257 0.112t-0.257-0.112l-5.201-5.201q-0.112-0.112-0.112-0.257z"></path>
</g>
<g id="icon-angle-right">
	<path class="path1" d="M0.145 15.357q0-0.145 0.112-0.257l4.386-4.386-4.386-4.386q-0.112-0.112-0.112-0.257t0.112-0.257l0.558-0.558q0.112-0.112 0.257-0.112t0.257 0.112l5.201 5.201q0.112 0.112 0.112 0.257t-0.112 0.257l-5.201 5.201q-0.112 0.112-0.257 0.112t-0.257-0.112l-0.558-0.558q-0.112-0.112-0.112-0.257z"></path>
</g>
<g id="icon-angle-up">
	<path class="path1" d="M0.859 13.214q0-0.145 0.112-0.257l5.201-5.201q0.112-0.112 0.257-0.112t0.257 0.112l5.201 5.201q0.112 0.112 0.112 0.257t-0.112 0.257l-0.558 0.558q-0.112 0.112-0.257 0.112t-0.257-0.112l-4.386-4.386-4.386 4.386q-0.112 0.112-0.257 0.112t-0.257-0.112l-0.558-0.558q-0.112-0.112-0.112-0.257z"></path>
</g>
<g id="icon-angle-down">
	<path class="path1" d="M0.859 8.214q0-0.145 0.112-0.257l0.558-0.558q0.112-0.112 0.257-0.112t0.257 0.112l4.386 4.386 4.386-4.386q0.112-0.112 0.257-0.112t0.257 0.112l0.558 0.558q0.112 0.112 0.112 0.257t-0.112 0.257l-5.201 5.201q-0.112 0.112-0.257 0.112t-0.257-0.112l-5.201-5.201q-0.112-0.112-0.112-0.257z"></path>
</g>
<g id="icon-tablet">
	<path class="path1" d="M0 15.357v-12.143q0-0.737 0.525-1.261t1.261-0.525h9.286q0.737 0 1.261 0.525t0.525 1.261v12.143q0 0.737-0.525 1.261t-1.261 0.525h-9.286q-0.737 0-1.261-0.525t-0.525-1.261zM1.429 13.929q0 0.145 0.106 0.251t0.251 0.106h9.286q0.145 0 0.251-0.106t0.106-0.251v-10.714q0-0.145-0.106-0.251t-0.251-0.106h-9.286q-0.145 0-0.251 0.106t-0.106 0.251v10.714zM5.714 15.714q0 0.29 0.212 0.502t0.502 0.212 0.502-0.212 0.212-0.502-0.212-0.502-0.502-0.212-0.502 0.212-0.212 0.502z"></path>
</g>
<g id="icon-quote-left">
	<path class="path1" d="M0 15v-7.857q0-1.161 0.452-2.215t1.222-1.825 1.825-1.222 2.215-0.452h0.714q0.29 0 0.502 0.212t0.212 0.502v1.429q0 0.29-0.212 0.502t-0.502 0.212h-0.714q-1.183 0-2.020 0.837t-0.837 2.020v0.357q0 0.446 0.313 0.759t0.759 0.313h2.5q0.893 0 1.518 0.625t0.625 1.518v4.286q0 0.893-0.625 1.518t-1.518 0.625h-4.286q-0.893 0-1.518-0.625t-0.625-1.518zM10 15v-7.857q0-1.161 0.452-2.215t1.222-1.825 1.825-1.222 2.215-0.452h0.714q0.29 0 0.502 0.212t0.212 0.502v1.429q0 0.29-0.212 0.502t-0.502 0.212h-0.714q-1.183 0-2.020 0.837t-0.837 2.020v0.357q0 0.446 0.313 0.759t0.759 0.313h2.5q0.893 0 1.518 0.625t0.625 1.518v4.286q0 0.893-0.625 1.518t-1.518 0.625h-4.286q-0.893 0-1.518-0.625t-0.625-1.518z"></path>
</g>
<g id="icon-quote-right">
	<path class="path1" d="M0 7.857v-4.286q0-0.893 0.625-1.518t1.518-0.625h4.286q0.893 0 1.518 0.625t0.625 1.518v7.857q0 1.161-0.452 2.215t-1.222 1.825-1.825 1.222-2.215 0.452h-0.714q-0.29 0-0.502-0.212t-0.212-0.502v-1.429q0-0.29 0.212-0.502t0.502-0.212h0.714q1.183 0 2.020-0.837t0.837-2.020v-0.357q0-0.446-0.313-0.759t-0.759-0.313h-2.5q-0.893 0-1.518-0.625t-0.625-1.518zM10 7.857v-4.286q0-0.893 0.625-1.518t1.518-0.625h4.286q0.893 0 1.518 0.625t0.625 1.518v7.857q0 1.161-0.452 2.215t-1.222 1.825-1.825 1.222-2.215 0.452h-0.714q-0.29 0-0.502-0.212t-0.212-0.502v-1.429q0-0.29 0.212-0.502t0.502-0.212h0.714q1.183 0 2.020-0.837t0.837-2.020v-0.357q0-0.446-0.313-0.759t-0.759-0.313h-2.5q-0.893 0-1.518-0.625t-0.625-1.518z"></path>
</g>
<g id="icon-github-alt">
	<path class="path1" d="M0 11.607q0-2.645 1.518-4.42-0.301-0.915-0.301-1.897 0-1.295 0.569-2.433 1.205 0 2.121 0.441t2.109 1.378q1.641-0.391 3.449-0.391 1.652 0 3.125 0.357 1.172-0.915 2.087-1.35t2.109-0.435q0.569 1.138 0.569 2.433 0 0.971-0.301 1.875 1.518 1.786 1.518 4.442 0 2.31-0.681 3.694-0.424 0.859-1.177 1.484t-1.574 0.96-1.897 0.53-1.914 0.246-1.864 0.050q-0.871 0-1.585-0.033t-1.646-0.14-1.702-0.335-1.529-0.575-1.35-0.904-0.96-1.283q-0.692-1.373-0.692-3.694zM2.5 13.571q0 0.982 0.357 1.713t0.904 1.15 1.362 0.67 1.563 0.329 1.663 0.078h1.875q0.915 0 1.663-0.078t1.563-0.329 1.362-0.67 0.904-1.15 0.357-1.713q0-1.339-0.77-2.277t-2.087-0.938q-0.458 0-2.176 0.234-0.792 0.123-1.752 0.123t-1.752-0.123q-1.696-0.234-2.176-0.234-1.317 0-2.087 0.938t-0.77 2.277zM4.286 13.571q0-0.446 0.14-0.915t0.48-0.848 0.809-0.379 0.809 0.379 0.48 0.848 0.14 0.915-0.14 0.915-0.48 0.848-0.809 0.379-0.809-0.379-0.48-0.848-0.14-0.915zM11.429 13.571q0-0.446 0.14-0.915t0.48-0.848 0.809-0.379 0.809 0.379 0.48 0.848 0.14 0.915-0.14 0.915-0.48 0.848-0.809 0.379-0.809-0.379-0.48-0.848-0.14-0.915z"></path>
</g>
<g id="icon-keyboard-o">
	<path class="path1" d="M0 15.714v-10q0-0.592 0.419-1.010t1.010-0.419h18.571q0.592 0 1.010 0.419t0.419 1.010v10q0 0.592-0.419 1.010t-1.010 0.419h-18.571q-0.592 0-1.010-0.419t-0.419-1.010zM1.429 15.714h18.571v-10h-18.571v10zM2.857 14.107v-1.071q0-0.179 0.179-0.179h1.071q0.179 0 0.179 0.179v1.071q0 0.179-0.179 0.179h-1.071q-0.179 0-0.179-0.179zM2.857 11.25v-1.071q0-0.179 0.179-0.179h2.5q0.179 0 0.179 0.179v1.071q0 0.179-0.179 0.179h-2.5q-0.179 0-0.179-0.179zM2.857 8.393v-1.071q0-0.179 0.179-0.179h1.071q0.179 0 0.179 0.179v1.071q0 0.179-0.179 0.179h-1.071q-0.179 0-0.179-0.179zM5.714 14.107v-1.071q0-0.179 0.179-0.179h9.643q0.179 0 0.179 0.179v1.071q0 0.179-0.179 0.179h-9.643q-0.179 0-0.179-0.179zM5.714 8.393v-1.071q0-0.179 0.179-0.179h1.071q0.179 0 0.179 0.179v1.071q0 0.179-0.179 0.179h-1.071q-0.179 0-0.179-0.179zM7.143 11.25v-1.071q0-0.179 0.179-0.179h1.071q0.179 0 0.179 0.179v1.071q0 0.179-0.179 0.179h-1.071q-0.179 0-0.179-0.179zM8.571 8.393v-1.071q0-0.179 0.179-0.179h1.071q0.179 0 0.179 0.179v1.071q0 0.179-0.179 0.179h-1.071q-0.179 0-0.179-0.179zM10 11.25v-1.071q0-0.179 0.179-0.179h1.071q0.179 0 0.179 0.179v1.071q0 0.179-0.179 0.179h-1.071q-0.179 0-0.179-0.179zM11.429 8.393v-1.071q0-0.179 0.179-0.179h1.071q0.179 0 0.179 0.179v1.071q0 0.179-0.179 0.179h-1.071q-0.179 0-0.179-0.179zM12.857 11.25v-1.071q0-0.179 0.179-0.179h1.071q0.179 0 0.179 0.179v1.071q0 0.179-0.179 0.179h-1.071q-0.179 0-0.179-0.179zM14.286 8.393v-1.071q0-0.179 0.179-0.179h1.071q0.179 0 0.179 0.179v1.071q0 0.179-0.179 0.179h-1.071q-0.179 0-0.179-0.179zM15.714 11.25v-1.071q0-0.179 0.179-0.179h1.25v-2.679q0-0.179 0.179-0.179h1.071q0.179 0 0.179 0.179v3.929q0 0.179-0.179 0.179h-2.5q-0.179 0-0.179-0.179zM17.143 14.107v-1.071q0-0.179 0.179-0.179h1.071q0.179 0 0.179 0.179v1.071q0 0.179-0.179 0.179h-1.071q-0.179 0-0.179-0.179z"></path>
</g>
<g id="icon-code">
	<path class="path1" d="M0.502 10.714q0-0.145 0.112-0.257l5.201-5.201q0.112-0.112 0.257-0.112t0.257 0.112l0.558 0.558q0.112 0.112 0.112 0.257t-0.112 0.257l-4.386 4.386 4.386 4.386q0.112 0.112 0.112 0.257t-0.112 0.257l-0.558 0.558q-0.112 0.112-0.257 0.112t-0.257-0.112l-5.201-5.201q-0.112-0.112-0.112-0.257zM7.946 17.723l4.163-14.408q0.045-0.145 0.173-0.218t0.262-0.028l0.692 0.19q0.145 0.045 0.218 0.173t0.028 0.273l-4.163 14.408q-0.045 0.145-0.173 0.218t-0.262 0.028l-0.692-0.19q-0.145-0.045-0.218-0.173t-0.028-0.273zM14.431 15.357q0-0.145 0.112-0.257l4.386-4.386-4.386-4.386q-0.112-0.112-0.112-0.257t0.112-0.257l0.558-0.558q0.112-0.112 0.257-0.112t0.257 0.112l5.201 5.201q0.112 0.112 0.112 0.257t-0.112 0.257l-5.201 5.201q-0.112 0.112-0.257 0.112t-0.257-0.112l-0.558-0.558q-0.112-0.112-0.112-0.257z"></path>
</g>
<g id="icon-calendar-o">
	<path class="path1" d="M0 18.571v-14.286q0-0.58 0.424-1.004t1.004-0.424h1.429v-1.071q0-0.737 0.525-1.261t1.261-0.525h0.714q0.737 0 1.261 0.525t0.525 1.261v1.071h4.286v-1.071q0-0.737 0.525-1.261t1.261-0.525h0.714q0.737 0 1.261 0.525t0.525 1.261v1.071h1.429q0.58 0 1.004 0.424t0.424 1.004v14.286q0 0.58-0.424 1.004t-1.004 0.424h-15.714q-0.58 0-1.004-0.424t-0.424-1.004zM1.429 18.571h15.714v-11.429h-15.714v11.429zM4.286 5q0 0.156 0.1 0.257t0.257 0.1h0.714q0.156 0 0.257-0.1t0.1-0.257v-3.214q0-0.156-0.1-0.257t-0.257-0.1h-0.714q-0.156 0-0.257 0.1t-0.1 0.257v3.214zM12.857 5q0 0.156 0.1 0.257t0.257 0.1h0.714q0.156 0 0.257-0.1t0.1-0.257v-3.214q0-0.156-0.1-0.257t-0.257-0.1h-0.714q-0.156 0-0.257 0.1t-0.1 0.257v3.214z"></path>
</g>
<g id="icon-euro">
	<path class="path1" d="M0 11.406v-1.261q0-0.145 0.106-0.251t0.251-0.106h0.737q-0.022-0.636 0.011-1.172h-0.748q-0.156 0-0.257-0.1t-0.1-0.257v-1.272q0-0.156 0.1-0.257t0.257-0.1h1.094q0.748-2.344 2.718-3.772t4.47-1.429q1.138 0 2.165 0.257 0.123 0.033 0.223 0.167 0.067 0.123 0.033 0.268l-0.48 1.775q-0.033 0.145-0.156 0.218t-0.268 0.028l-0.045-0.011q-0.045-0.011-0.128-0.028l-0.195-0.039t-0.251-0.039-0.29-0.033-0.324-0.028-0.329-0.011q-1.406 0-2.522 0.714t-1.674 1.964h5.223q0.179 0 0.279 0.134 0.112 0.134 0.078 0.29l-0.268 1.272q-0.056 0.29-0.357 0.29h-5.446q-0.033 0.413 0 1.172h5.123q0.167 0 0.279 0.134 0.1 0.134 0.067 0.301l-0.268 1.25q-0.022 0.123-0.123 0.206t-0.223 0.084h-4.319q0.536 1.306 1.669 2.070t2.55 0.765q0.201 0 0.402-0.017t0.374-0.039 0.329-0.050 0.273-0.056 0.206-0.050l0.134-0.033 0.056-0.022q0.145-0.056 0.29 0.022 0.134 0.078 0.167 0.234l0.391 1.775q0.033 0.134-0.033 0.251t-0.19 0.162l-0.056 0.011q-0.045 0.022-0.117 0.039t-0.179 0.050-0.24 0.061-0.285 0.056-0.335 0.056-0.374 0.050-0.407 0.033-0.43 0.011q-2.612 0-4.565-1.456t-2.656-3.923h-1.060q-0.145 0-0.251-0.106t-0.106-0.251z"></path>
</g>
<g id="icon-gbp">
	<path class="path1" d="M0 16.786v-1.674q0-0.145 0.106-0.251t0.251-0.106h1.083v-4.275h-1.060q-0.156 0-0.257-0.106t-0.1-0.251v-1.462q0-0.156 0.1-0.257t0.257-0.1h1.060v-2.489q0-1.908 1.378-3.147t3.51-1.239q2.065 0 3.739 1.395 0.1 0.089 0.112 0.229t-0.078 0.251l-1.15 1.417q-0.1 0.123-0.246 0.134-0.145 0.022-0.257-0.078-0.056-0.056-0.29-0.212t-0.77-0.357-1.038-0.201q-0.949 0-1.529 0.525t-0.58 1.373v2.4h3.404q0.145 0 0.251 0.1t0.106 0.257v1.462q0 0.145-0.106 0.251t-0.251 0.106h-3.404v4.23h4.621v-2.020q0-0.145 0.1-0.251t0.257-0.106h1.808q0.156 0 0.257 0.106t0.1 0.251v4.096q0 0.156-0.1 0.257t-0.257 0.1h-10.67q-0.156 0-0.257-0.1t-0.1-0.257z"></path>
</g>
<g id="icon-dollar">
	<path class="path1" d="M0.58 15.234l1.15-1.507q0.078-0.112 0.257-0.134 0.167-0.022 0.268 0.1l0.022 0.022q1.261 1.105 2.712 1.395 0.413 0.089 0.826 0.089 0.904 0 1.59-0.48t0.686-1.362q0-0.313-0.167-0.592t-0.374-0.469-0.653-0.419-0.737-0.357-0.893-0.363q-0.435-0.179-0.686-0.279t-0.686-0.296-0.698-0.346-0.631-0.396-0.597-0.474-0.485-0.547-0.396-0.647-0.234-0.742-0.095-0.871q0-1.54 1.094-2.701t2.846-1.496v-2.009q0-0.145 0.106-0.251t0.251-0.106h1.507q0.156 0 0.257 0.1t0.1 0.257v1.964q0.636 0.067 1.233 0.257t0.971 0.374 0.709 0.419 0.435 0.324 0.167 0.156q0.19 0.201 0.056 0.424l-0.904 1.629q-0.089 0.167-0.257 0.179-0.156 0.033-0.301-0.078-0.033-0.033-0.162-0.134t-0.435-0.296-0.653-0.357-0.831-0.29-0.954-0.128q-1.060 0-1.73 0.48t-0.67 1.239q0 0.29 0.095 0.536t0.329 0.463 0.441 0.368 0.625 0.346 0.675 0.301 0.781 0.307q0.592 0.223 0.904 0.352t0.848 0.391 0.843 0.474 0.692 0.558 0.592 0.709 0.352 0.854 0.145 1.049q0 1.708-1.11 2.941t-2.885 1.523v1.953q0 0.156-0.1 0.257t-0.257 0.1h-1.507q-0.145 0-0.251-0.106t-0.106-0.251v-1.953q-0.737-0.1-1.423-0.346t-1.133-0.497-0.826-0.536-0.519-0.419-0.195-0.201q-0.19-0.234-0.022-0.458z"></path>
</g>
<g id="icon-cny">
	<path class="path1" d="M0.045 1.964q-0.089-0.179 0-0.357 0.112-0.179 0.313-0.179h2.165q0.212 0 0.324 0.201l2.4 4.743q0.212 0.424 0.625 1.395 0.112-0.268 0.34-0.759t0.307-0.681l2.132-4.688q0.089-0.212 0.324-0.212h2.132q0.19 0 0.301 0.179 0.1 0.156 0.011 0.346l-3.493 6.462h2.4q0.145 0 0.251 0.106t0.106 0.251v1.161q0 0.156-0.106 0.257t-0.251 0.1h-3.237v0.949h3.237q0.145 0 0.251 0.106t0.106 0.251v1.15q0 0.156-0.106 0.257t-0.251 0.1h-3.237v3.683q0 0.145-0.106 0.251t-0.251 0.106h-1.92q-0.145 0-0.251-0.1t-0.106-0.257v-3.683h-3.214q-0.145 0-0.251-0.1t-0.106-0.257v-1.15q0-0.145 0.106-0.251t0.251-0.106h3.214v-0.949h-3.214q-0.145 0-0.251-0.1t-0.106-0.257v-1.161q0-0.145 0.106-0.251t0.251-0.106h2.388z"></path>
</g>
<g id="icon-skype">
	<path class="path1" d="M0 5.714q0-1.775 1.256-3.030t3.030-1.256q1.451 0 2.612 0.893 0.859-0.179 1.674-0.179 1.596 0 3.052 0.619t2.511 1.674 1.674 2.511 0.619 3.052q0 0.815-0.179 1.674 0.893 1.161 0.893 2.612 0 1.775-1.256 3.030t-3.030 1.256q-1.451 0-2.612-0.893-0.859 0.179-1.674 0.179-1.596 0-3.052-0.619t-2.511-1.674-1.674-2.511-0.619-3.052q0-0.815 0.179-1.674-0.893-1.161-0.893-2.612zM4.196 12.69q0 1.027 1.362 1.758t3.248 0.731q0.815 0 1.562-0.206t1.367-0.597 0.988-1.044 0.368-1.468q0-0.558-0.218-1.021t-0.541-0.765-0.815-0.547-0.921-0.379-0.977-0.257l-1.161-0.268q-0.335-0.078-0.491-0.117t-0.391-0.128-0.335-0.179-0.184-0.234-0.084-0.335q0-0.859 1.607-0.859 0.48 0 0.859 0.134t0.603 0.318 0.424 0.374 0.446 0.324 0.536 0.134q0.525 0 0.843-0.357t0.318-0.859q0-0.614-0.625-1.11t-1.585-0.753-2.031-0.257q-0.759 0-1.473 0.173t-1.334 0.525-0.993 0.971-0.374 1.434q0 0.681 0.212 1.189t0.625 0.843 0.893 0.541 1.15 0.363l1.629 0.402q1.004 0.246 1.25 0.402 0.357 0.223 0.357 0.67 0 0.435-0.446 0.72t-1.172 0.285q-0.569 0-1.021-0.179t-0.725-0.43-0.508-0.502-0.513-0.43-0.603-0.179q-0.558 0-0.843 0.335t-0.285 0.837z"></path>
</g>
<g id="icon-weibo">
	<path class="path1" d="M0 12.779q0-1.283 0.776-2.734t2.204-2.879q1.886-1.886 3.811-2.634t2.751 0.078q0.725 0.714 0.223 2.333-0.045 0.156-0.011 0.223t0.112 0.078 0.162-0.006 0.151-0.039l0.067-0.022q1.551-0.658 2.746-0.658t1.708 0.681q0.502 0.703 0 1.987-0.022 0.145-0.050 0.223t0.050 0.14 0.134 0.084 0.19 0.067q0.636 0.201 1.15 0.525t0.893 0.91 0.379 1.3q0 0.759-0.413 1.557t-1.217 1.529-1.881 1.311-2.522 0.926-3.019 0.346-3.069-0.374-2.684-1.038-1.914-1.685-0.725-2.227zM2.020 13.571q0.1 1.071 0.993 1.897t2.327 1.217 3.064 0.234q2.489-0.257 4.124-1.579t1.479-2.952q-0.1-1.071-0.993-1.897t-2.327-1.217-3.064-0.234q-2.489 0.257-4.124 1.579t-1.479 2.952zM4.615 14.57q-0.452-1.032 0.073-2.093 0.525-1.038 1.691-1.551t2.349-0.212q1.239 0.324 1.769 1.334t0.028 2.126q-0.502 1.138-1.763 1.674t-2.5 0.134q-1.194-0.379-1.646-1.412zM5.525 14.269q0.1 0.385 0.48 0.564t0.831 0.028 0.698-0.53q0.234-0.379 0.123-0.77t-0.502-0.558q-0.379-0.156-0.815-0.011t-0.67 0.513q-0.246 0.379-0.145 0.765zM7.868 12.69q-0.19 0.346 0.145 0.502 0.156 0.056 0.324-0.006t0.246-0.206q0.089-0.145 0.039-0.296t-0.195-0.206q-0.156-0.056-0.318 0.006t-0.24 0.206zM13.002 2.924q-0.067-0.313 0.106-0.575t0.485-0.329q1.373-0.29 2.723 0.128t2.321 1.501q0.971 1.071 1.256 2.483t-0.151 2.695q-0.1 0.301-0.379 0.446t-0.58 0.045-0.446-0.379-0.056-0.58q0.313-0.915 0.112-1.92t-0.893-1.763q-0.692-0.77-1.652-1.066t-1.931-0.095q-0.313 0.067-0.58-0.106t-0.335-0.485zM13.661 5.458q-0.056-0.268 0.089-0.497t0.413-0.285q0.67-0.145 1.328 0.061t1.127 0.731 0.608 1.211-0.073 1.311q-0.089 0.257-0.329 0.379t-0.497 0.045q-0.257-0.089-0.379-0.329t-0.045-0.497q0.223-0.703-0.268-1.239t-1.194-0.391q-0.268 0.056-0.502-0.089t-0.279-0.413z"></path>
</g>
<g id="icon-wordpress">
	<path class="path1" d="M0 10q0-2.031 0.792-3.884t2.132-3.192 3.192-2.132 3.884-0.792 3.884 0.792 3.192 2.132 2.132 3.192 0.792 3.884-0.792 3.884-2.132 3.192-3.192 2.132-3.884 0.792-3.884-0.792-3.192-2.132-2.132-3.192-0.792-3.884zM0.458 10q0 1.931 0.759 3.7t2.037 3.047 3.047 2.037 3.7 0.759 3.7-0.759 3.047-2.037 2.037-3.047 0.759-3.7-0.759-3.7-2.037-3.047-3.047-2.037-3.7-0.759-3.7 0.759-3.047 2.037-2.037 3.047-0.759 3.7zM1.417 10q0-1.819 0.748-3.493l4.096 11.217q-2.188-1.060-3.516-3.136t-1.328-4.587zM2.835 5.29q1.172-1.786 3.064-2.829t4.102-1.044q1.641 0 3.131 0.592t2.662 1.663h-0.112q-0.614 0-1.027 0.452t-0.413 1.066q0 0.134 0.022 0.268t0.045 0.24 0.089 0.257 0.1 0.234 0.134 0.251 0.14 0.234 0.162 0.268 0.156 0.257q0.703 1.194 0.703 2.366 0 0.212-0.028 0.43t-0.112 0.552-0.128 0.491-0.195 0.658-0.195 0.647l-0.848 2.857-3.103-9.219q0.513-0.033 0.982-0.089 0.212-0.022 0.29-0.206t-0.028-0.346-0.318-0.151l-2.288 0.112q-0.837-0.011-2.254-0.112-0.134-0.011-0.229 0.056t-0.128 0.167-0.017 0.206 0.1 0.184 0.218 0.089l0.893 0.089 1.339 3.661-1.875 5.625-3.125-9.286q0.513-0.033 0.982-0.089 0.212-0.022 0.29-0.206t-0.028-0.346-0.318-0.151l-2.288 0.112q-0.078 0-0.257-0.006t-0.29-0.006zM7.578 18.225l2.567-7.478 2.645 7.221q0.011 0.067 0.056 0.123-1.406 0.491-2.846 0.491-1.25 0-2.422-0.357zM14.308 17.411l2.623-7.567q0.658-1.886 0.658-3.080 0-0.469-0.067-0.882 1.060 1.942 1.060 4.118 0 2.333-1.161 4.302t-3.114 3.108z"></path>
</g>
<g id="icon-codepen">
	<path class="path1" d="M0 13.047v-6.094q0-0.458 0.379-0.714l9.141-6.094q0.234-0.145 0.48-0.145t0.48 0.145l9.141 6.094q0.379 0.257 0.379 0.714v6.094q0 0.458-0.379 0.714l-9.141 6.094q-0.234 0.145-0.48 0.145t-0.48-0.145l-9.141-6.094q-0.379-0.257-0.379-0.714zM1.719 11.44l2.154-1.44-2.154-1.44v2.879zM2.411 13.047l6.73 4.487v-4.007l-3.728-2.489zM2.411 6.953l3.002 2.009 3.728-2.489v-4.007zM6.964 10l3.036 2.031 3.036-2.031-3.036-2.031zM10.859 17.533l6.73-4.487-3.002-2.009-3.728 2.489v4.007zM10.859 6.473l3.728 2.489 3.002-2.009-6.73-4.487v4.007zM16.127 10l2.154 1.44v-2.879z"></path>
</g>
<g id="icon-wechat">
	<path class="path1" d="M0 7.567q0-1.886 1.088-3.471t2.946-2.494 4.057-0.91q1.964 0 3.711 0.737t2.924 2.037 1.523 2.907q-0.346-0.045-0.781-0.045-1.886 0-3.471 0.859t-2.494 2.327-0.91 3.209q0 0.871 0.257 1.696-0.391 0.033-0.759 0.033-0.29 0-0.558-0.017t-0.614-0.073-0.497-0.078-0.608-0.117-0.558-0.117l-2.824 1.417 0.804-2.433q-3.237-2.266-3.237-5.469zM4.241 5.145q0 0.435 0.368 0.72t0.848 0.285q0.458 0 0.737-0.273t0.279-0.731-0.279-0.737-0.737-0.279q-0.48 0-0.848 0.285t-0.368 0.731zM9.107 12.634q0-1.596 0.91-2.946t2.494-2.137 3.471-0.787q1.797 0 3.382 0.787t2.539 2.143 0.954 2.941q0 1.306-0.765 2.494t-2.070 2.16l0.614 2.020-2.221-1.217q-1.674 0.413-2.433 0.413-1.886 0-3.471-0.787t-2.494-2.137-0.91-2.946zM9.911 5.145q0 0.435 0.368 0.72t0.848 0.285q0.458 0 0.731-0.273t0.273-0.731-0.273-0.737-0.731-0.279q-0.48 0-0.848 0.285t-0.368 0.731zM12.946 10.804q0 0.313 0.251 0.564t0.552 0.251q0.446 0 0.731-0.246t0.285-0.569q0-0.313-0.285-0.558t-0.731-0.246q-0.301 0-0.552 0.251t-0.251 0.552zM17.4 10.804q0 0.313 0.251 0.564t0.552 0.251q0.435 0 0.725-0.246t0.29-0.569q0-0.313-0.29-0.558t-0.725-0.246q-0.301 0-0.552 0.251t-0.251 0.552z"></path>
</g>
<g id="icon-checkbox-checked">
	<path class="path1" d="M0 0v20h20v-20h-20zM18.75 18.75h-17.5v-17.5h17.5v17.5zM15 4.375l-6.25 6.25-3.75-3.75-2.5 2.5 6.25 6.25 8.75-8.75-2.5-2.5z"></path>
</g>
<g id="icon-checkbox-unchecked">
	<path class="path1" d="M0 0v20h20v-20h-20zM18.75 18.75h-17.5v-17.5h17.5v17.5z"></path>
</g>
<g id="icon-file-xml">
	<path class="path1" d="M8.75 11.25l-1.25-1.25-3.75 3.75 3.75 3.75 1.25-1.25-2.5-2.5zM11.25 16.25l1.25 1.25 3.75-3.75-3.75-3.75-1.25 1.25 2.5 2.5zM17.645 3.895l-2.79-2.79c-0.608-0.608-1.808-1.105-2.667-1.105h-9.375c-0.859 0-1.563 0.703-1.563 1.563v16.875c0 0.859 0.703 1.563 1.563 1.563h14.375c0.859 0 1.563-0.703 1.563-1.563v-11.875c0-0.859-0.497-2.060-1.105-2.667zM16.761 4.779c0.061 0.061 0.122 0.136 0.181 0.221h-3.193v-3.192c0.085 0.059 0.16 0.12 0.221 0.181l2.79 2.79zM17.5 18.438c0 0.169-0.143 0.313-0.313 0.313h-14.375c-0.169 0-0.313-0.143-0.313-0.313v-16.875c0-0.169 0.143-0.313 0.313-0.313h9.375c0.094 0 0.2 0.012 0.313 0.033v4.967h4.967c0.021 0.112 0.033 0.218 0.033 0.313v11.875z"></path>
</g>
<g id="icon-file-css">
	<path class="path1" d="M7.5 11.942v-2.231c0-0.295 0.131-0.575 0.368-0.787s0.551-0.329 0.882-0.329v-1.115c-1.375 0-2.5 1.004-2.5 2.231v1.673c0 0.308-0.28 0.558-0.625 0.558h-0.625v1.115h0.625c0.345 0 0.625 0.25 0.625 0.558v1.673c0 1.227 1.125 2.231 2.5 2.231v-1.115c-0.331 0-0.644-0.117-0.882-0.329s-0.368-0.491-0.368-0.787v-2.231c0-0.308-0.28-0.558-0.625-0.558 0.345 0 0.625-0.25 0.625-0.558zM12.5 13.058v2.231c0 0.295-0.131 0.575-0.368 0.787s-0.551 0.329-0.882 0.329v1.115c1.375 0 2.5-1.004 2.5-2.231v-1.673c0-0.308 0.28-0.558 0.625-0.558h0.625v-1.115h-0.625c-0.345 0-0.625-0.25-0.625-0.558v-1.673c0-1.227-1.125-2.231-2.5-2.231v1.115c0.331 0 0.644 0.117 0.882 0.329s0.368 0.491 0.368 0.787v2.231c0 0.308 0.28 0.558 0.625 0.558-0.345-0-0.625 0.25-0.625 0.558zM17.645 3.895l-2.79-2.79c-0.608-0.608-1.808-1.105-2.667-1.105h-9.375c-0.859 0-1.563 0.703-1.563 1.563v16.875c0 0.859 0.703 1.563 1.563 1.563h14.375c0.859 0 1.563-0.703 1.563-1.563v-11.875c0-0.859-0.497-2.060-1.105-2.667zM16.761 4.779c0.061 0.061 0.122 0.136 0.181 0.221h-3.193v-3.192c0.085 0.059 0.16 0.12 0.221 0.181l2.79 2.79zM17.5 18.438c0 0.169-0.143 0.313-0.313 0.313h-14.375c-0.169 0-0.313-0.143-0.313-0.313v-16.875c0-0.169 0.143-0.313 0.313-0.313h9.375c0.094 0 0.2 0.012 0.313 0.033v4.967h4.967c0.021 0.112 0.033 0.218 0.033 0.313v11.875z"></path>
</g>
</defs>

<g fill="#000000">
	<use xlink:href="#icon-clear-day" transform="translate(0 0)"></use>
	<use xlink:href="#icon-clear-night" transform="translate(37 0)"></use>
	<use xlink:href="#icon-cloudy" transform="translate(73 0)"></use>
	<use xlink:href="#icon-foggy" transform="translate(109 0)"></use>
	<use xlink:href="#icon-hail" transform="translate(145 0)"></use>
	<use xlink:href="#icon-heavy-rain" transform="translate(181 0)"></use>
	<use xlink:href="#icon-heavy-snow" transform="translate(217 0)"></use>
	<use xlink:href="#icon-light-rain" transform="translate(256 0)"></use>
	<use xlink:href="#icon-light-snow" transform="translate(292 0)"></use>
	<use xlink:href="#icon-mostly-clear-day" transform="translate(328 0)"></use>
	<use xlink:href="#icon-mostly-clear-night" transform="translate(364 0)"></use>
	<use xlink:href="#icon-overcast" transform="translate(400 0)"></use>
	<use xlink:href="#icon-thunder" transform="translate(437 0)"></use>
	<use xlink:href="#icon-envelope-o" transform="translate(474 0)"></use>
	<use xlink:href="#icon-user" transform="translate(510 0)"></use>
	<use xlink:href="#icon-gear" transform="translate(545 0)"></use>
	<use xlink:href="#icon-road" transform="translate(0 36)"></use>
	<use xlink:href="#icon-download" transform="translate(37 36)"></use>
	<use xlink:href="#icon-list-alt" transform="translate(73 36)"></use>
	<use xlink:href="#icon-lock" transform="translate(109 36)"></use>
	<use xlink:href="#icon-book" transform="translate(145 36)"></use>
	<use xlink:href="#icon-map-marker" transform="translate(181 36)"></use>
	<use xlink:href="#icon-edit" transform="translate(217 36)"></use>
	<use xlink:href="#icon-expand" transform="translate(256 36)"></use>
	<use xlink:href="#icon-compress" transform="translate(292 36)"></use>
	<use xlink:href="#icon-sign-out" transform="translate(328 36)"></use>
	<use xlink:href="#icon-linkedin-square" transform="translate(364 36)"></use>
	<use xlink:href="#icon-external-link" transform="translate(400 36)"></use>
	<use xlink:href="#icon-sign-in" transform="translate(437 36)"></use>
	<use xlink:href="#icon-phone" transform="translate(474 36)"></use>
	<use xlink:href="#icon-twitter" transform="translate(510 36)"></use>
	<use xlink:href="#icon-pinterest" transform="translate(545 36)"></use>
	<use xlink:href="#icon-google-plus" transform="translate(0 72)"></use>
	<use xlink:href="#icon-dashboard" transform="translate(37 72)"></use>
	<use xlink:href="#icon-paste" transform="translate(73 72)"></use>
	<use xlink:href="#icon-angle-left" transform="translate(109 72)"></use>
	<use xlink:href="#icon-angle-right" transform="translate(145 72)"></use>
	<use xlink:href="#icon-angle-up" transform="translate(181 72)"></use>
	<use xlink:href="#icon-angle-down" transform="translate(217 72)"></use>
	<use xlink:href="#icon-tablet" transform="translate(256 72)"></use>
	<use xlink:href="#icon-quote-left" transform="translate(292 72)"></use>
	<use xlink:href="#icon-quote-right" transform="translate(328 72)"></use>
	<use xlink:href="#icon-github-alt" transform="translate(364 72)"></use>
	<use xlink:href="#icon-keyboard-o" transform="translate(400 72)"></use>
	<use xlink:href="#icon-code" transform="translate(437 72)"></use>
	<use xlink:href="#icon-calendar-o" transform="translate(474 72)"></use>
	<use xlink:href="#icon-euro" transform="translate(510 72)"></use>
	<use xlink:href="#icon-gbp" transform="translate(545 72)"></use>
	<use xlink:href="#icon-dollar" transform="translate(0 108)"></use>
	<use xlink:href="#icon-cny" transform="translate(37 108)"></use>
	<use xlink:href="#icon-skype" transform="translate(73 108)"></use>
	<use xlink:href="#icon-weibo" transform="translate(109 108)"></use>
	<use xlink:href="#icon-wordpress" transform="translate(145 108)"></use>
	<use xlink:href="#icon-codepen" transform="translate(181 108)"></use>
	<use xlink:href="#icon-wechat" transform="translate(217 108)"></use>
	<use xlink:href="#icon-checkbox-checked" transform="translate(256 108)"></use>
	<use xlink:href="#icon-checkbox-unchecked" transform="translate(292 108)"></use>
	<use xlink:href="#icon-file-xml" transform="translate(328 108)"></use>
	<use xlink:href="#icon-file-css" transform="translate(364 108)"></use>
</g>

</svg>
