<svg width="1271" height="742" xmlns="http://www.w3.org/2000/svg"><g><path d="M-48.07055418379605,-105.0539933424443L-97.07897021435201,59.503753781318665L25.47231744043529,-55.41518029756844Z" fill="#ffffe5" stroke="#ffffe5" fill-opacity="1" stroke-opacity="1"/><path d="M-48.07055418379605,-105.0539933424443L25.47231744043529,-55.41518029756844L230.4521894082427,-45.77797849662602Z" fill="#f2fae2" stroke="#f2fae2" fill-opacity="1" stroke-opacity="1"/><path d="M-48.07055418379605,-105.0539933424443L230.4521894082427,-45.77797849662602L496.4776887651533,-80.06229657679796Z" fill="#d5efdb" stroke="#d5efdb" fill-opacity="1" stroke-opacity="1"/><path d="M-48.07055418379605,-105.0539933424443L496.4776887651533,-80.06229657679796L690.0236638449132,-123.17636718973517Z" fill="#b9e4de" stroke="#b9e4de" fill-opacity="1" stroke-opacity="1"/><path d="M25.47231744043529,-55.41518029756844L-97.07897021435201,59.503753781318665L89.76340242661536,72.75657529011369Z" fill="#f9ffdd" stroke="#f9ffdd" fill-opacity="1" stroke-opacity="1"/><path d="M25.47231744043529,-55.41518029756844L89.76340242661536,72.75657529011369L230.4521894082427,-45.77797849662602Z" fill="#eaf7db" stroke="#eaf7db" fill-opacity="1" stroke-opacity="1"/><path d="M230.4521894082427,-45.77797849662602L89.76340242661536,72.75657529011369L265.280222017318,39.156871140003204Z" fill="#d7f1d5" stroke="#d7f1d5" fill-opacity="1" stroke-opacity="1"/><path d="M230.4521894082427,-45.77797849662602L265.280222017318,39.156871140003204L363.231838401407,-50.2299792598933Z" fill="#caead7" stroke="#caead7" fill-opacity="1" stroke-opacity="1"/><path d="M230.4521894082427,-45.77797849662602L363.231838401407,-50.2299792598933L496.4776887651533,-80.06229657679796Z" fill="#bce5dd" stroke="#bce5dd" fill-opacity="1" stroke-opacity="1"/><path d="M363.231838401407,-50.2299792598933L265.280222017318,39.156871140003204L372.2732454445213,28.03031885996461Z" fill="#c0e7d6" stroke="#c0e7d6" fill-opacity="1" stroke-opacity="1"/><path d="M363.231838401407,-50.2299792598933L372.2732454445213,28.03031885996461L496.4776887651533,-80.06229657679796Z" fill="#b3e2dc" stroke="#b3e2dc" fill-opacity="1" stroke-opacity="1"/><path d="M496.4776887651533,-80.06229657679796L372.2732454445213,28.03031885996461L494.2345221620053,69.36981037259102Z" fill="#a9dfda" stroke="#a9dfda" fill-opacity="1" stroke-opacity="1"/><path d="M496.4776887651533,-80.06229657679796L494.2345221620053,69.36981037259102L637.1501591149718,108.55866448022425Z" fill="#98d7d8" stroke="#98d7d8" fill-opacity="1" stroke-opacity="1"/><path d="M496.4776887651533,-80.06229657679796L637.1501591149718,108.55866448022425L690.0236638449132,-123.17636718973517Z" fill="#9cd0dc" stroke="#9cd0dc" fill-opacity="1" stroke-opacity="1"/><path d="M690.0236638449132,-123.17636718973517L637.1501591149718,108.55866448022425L831.745191346854,90.07537102326751Z" fill="#92c4d4" stroke="#92c4d4" fill-opacity="1" stroke-opacity="1"/><path d="M690.0236638449132,-123.17636718973517L831.745191346854,90.07537102326751L829.7933274228126,-109.86115140840411Z" fill="#95bcd9" stroke="#95bcd9" fill-opacity="1" stroke-opacity="1"/><path d="M690.0236638449132,-123.17636718973517L829.7933274228126,-109.86115140840411L1131.112652812153,-90.54731525480747Z" fill="#94add3" stroke="#94add3" fill-opacity="1" stroke-opacity="1"/><path d="M829.7933274228126,-109.86115140840411L831.745191346854,90.07537102326751L929.787520011887,-67.6767844799906Z" fill="#94b0d2" stroke="#94b0d2" fill-opacity="1" stroke-opacity="1"/><path d="M829.7933274228126,-109.86115140840411L929.787520011887,-67.6767844799906L1131.112652812153,-90.54731525480747Z" fill="#93a2ce" stroke="#93a2ce" fill-opacity="1" stroke-opacity="1"/><path d="M929.787520011887,-67.6767844799906L831.745191346854,90.07537102326751L940.4235305450857,58.777134362608194Z" fill="#8eabc9" stroke="#8eabc9" fill-opacity="1" stroke-opacity="1"/><path d="M929.787520011887,-67.6767844799906L940.4235305450857,58.777134362608194L1086.5684097167104,59.14541970938444Z" fill="#8f9ec4" stroke="#8f9ec4" fill-opacity="1" stroke-opacity="1"/><path d="M929.787520011887,-67.6767844799906L1086.5684097167104,59.14541970938444L1131.112652812153,-90.54731525480747Z" fill="#9295c4" stroke="#9295c4" fill-opacity="1" stroke-opacity="1"/><path d="M1131.112652812153,-90.54731525480747L1086.5684097167104,59.14541970938444L1234.234197679907,-30.714552327990532Z" fill="#9086bc" stroke="#9086bc" fill-opacity="1" stroke-opacity="1"/><path d="M1131.112652812153,-90.54731525480747L1234.234197679907,-30.714552327990532L1472.9470047354698,-45.6143778283149Z" fill="#8f80b6" stroke="#8f80b6" fill-opacity="1" stroke-opacity="1"/><path d="M1234.234197679907,-30.714552327990532L1086.5684097167104,59.14541970938444L1240.7250844873488,50.86538219824433Z" fill="#8a81b5" stroke="#8a81b5" fill-opacity="1" stroke-opacity="1"/><path d="M1234.234197679907,-30.714552327990532L1240.7250844873488,50.86538219824433L1410.9091841150075,105.59573317877948Z" fill="#8580ac" stroke="#8580ac" fill-opacity="1" stroke-opacity="1"/><path d="M1234.234197679907,-30.714552327990532L1410.9091841150075,105.59573317877948L1472.9470047354698,-45.6143778283149Z" fill="#8b80aa" stroke="#8b80aa" fill-opacity="1" stroke-opacity="1"/><path d="M1472.9470047354698,-45.6143778283149L1410.9091841150075,105.59573317877948L1469.0752463042736,471.9546330627054Z" fill="#627c99" stroke="#627c99" fill-opacity="1" stroke-opacity="1"/><path d="M-97.07897021435201,59.503753781318665L-110.20569020882249,528.7465293053538L-78.07051735930145,179.74893922917545Z" fill="#b6f1dd" stroke="#b6f1dd" fill-opacity="1" stroke-opacity="1"/><path d="M-97.07897021435201,59.503753781318665L-78.07051735930145,179.74893922917545L89.76340242661536,72.75657529011369Z" fill="#e9ffd7" stroke="#e9ffd7" fill-opacity="1" stroke-opacity="1"/><path d="M89.76340242661536,72.75657529011369L-78.07051735930145,179.74893922917545L108.55093387886882,215.84633404389024Z" fill="#d5fbd0" stroke="#d5fbd0" fill-opacity="1" stroke-opacity="1"/><path d="M89.76340242661536,72.75657529011369L108.55093387886882,215.84633404389024L236.7722428869456,186.2018807977438Z" fill="#c1f3cb" stroke="#c1f3cb" fill-opacity="1" stroke-opacity="1"/><path d="M89.76340242661536,72.75657529011369L236.7722428869456,186.2018807977438L265.280222017318,39.156871140003204Z" fill="#c6f1cd" stroke="#c6f1cd" fill-opacity="1" stroke-opacity="1"/><path d="M265.280222017318,39.156871140003204L236.7722428869456,186.2018807977438L395.1787231396884,187.5746934581548Z" fill="#abeac8" stroke="#abeac8" fill-opacity="1" stroke-opacity="1"/><path d="M265.280222017318,39.156871140003204L395.1787231396884,187.5746934581548L372.2732454445213,28.03031885996461Z" fill="#ade6cf" stroke="#ade6cf" fill-opacity="1" stroke-opacity="1"/><path d="M372.2732454445213,28.03031885996461L395.1787231396884,187.5746934581548L494.2345221620053,69.36981037259102Z" fill="#9de1d0" stroke="#9de1d0" fill-opacity="1" stroke-opacity="1"/><path d="M494.2345221620053,69.36981037259102L395.1787231396884,187.5746934581548L528.2104126084596,204.67947732657194Z" fill="#86ddcd" stroke="#86ddcd" fill-opacity="1" stroke-opacity="1"/><path d="M494.2345221620053,69.36981037259102L528.2104126084596,204.67947732657194L637.1501591149718,108.55866448022425Z" fill="#83d6cf" stroke="#83d6cf" fill-opacity="1" stroke-opacity="1"/><path d="M637.1501591149718,108.55866448022425L528.2104126084596,204.67947732657194L646.1707298085093,226.2776019796729Z" fill="#71cccd" stroke="#71cccd" fill-opacity="1" stroke-opacity="1"/><path d="M637.1501591149718,108.55866448022425L646.1707298085093,226.2776019796729L831.745191346854,90.07537102326751Z" fill="#7ac5ca" stroke="#7ac5ca" fill-opacity="1" stroke-opacity="1"/><path d="M831.745191346854,90.07537102326751L646.1707298085093,226.2776019796729L874.517704853788,270.09864376857877Z" fill="#64b6c9" stroke="#64b6c9" fill-opacity="1" stroke-opacity="1"/><path d="M831.745191346854,90.07537102326751L874.517704853788,270.09864376857877L940.4235305450857,58.777134362608194Z" fill="#77aec0" stroke="#77aec0" fill-opacity="1" stroke-opacity="1"/><path d="M940.4235305450857,58.777134362608194L874.517704853788,270.09864376857877L1023.8546541519463,170.20780325867236Z" fill="#6da2bc" stroke="#6da2bc" fill-opacity="1" stroke-opacity="1"/><path d="M940.4235305450857,58.777134362608194L1023.8546541519463,170.20780325867236L1086.5684097167104,59.14541970938444Z" fill="#7e9abb" stroke="#7e9abb" fill-opacity="1" stroke-opacity="1"/><path d="M1086.5684097167104,59.14541970938444L1023.8546541519463,170.20780325867236L1092.3569550924003,241.8565891496837Z" fill="#6f91b3" stroke="#6f91b3" fill-opacity="1" stroke-opacity="1"/><path d="M1086.5684097167104,59.14541970938444L1092.3569550924003,241.8565891496837L1231.4541882276535,247.76642382144928Z" fill="#6484af" stroke="#6484af" fill-opacity="1" stroke-opacity="1"/><path d="M1086.5684097167104,59.14541970938444L1231.4541882276535,247.76642382144928L1240.7250844873488,50.86538219824433Z" fill="#7681ac" stroke="#7681ac" fill-opacity="1" stroke-opacity="1"/><path d="M1240.7250844873488,50.86538219824433L1231.4541882276535,247.76642382144928L1410.9091841150075,105.59573317877948Z" fill="#7280a4" stroke="#7280a4" fill-opacity="1" stroke-opacity="1"/><path d="M1410.9091841150075,105.59573317877948L1231.4541882276535,247.76642382144928L1383.6234915722162,264.70774275250733Z" fill="#5878a2" stroke="#5878a2" fill-opacity="1" stroke-opacity="1"/><path d="M1410.9091841150075,105.59573317877948L1383.6234915722162,264.70774275250733L1469.0752463042736,471.9546330627054Z" fill="#3a6fa2" stroke="#3a6fa2" fill-opacity="1" stroke-opacity="1"/><path d="M-78.07051735930145,179.74893922917545L-110.20569020882249,528.7465293053538L-34.37850776128471,334.20171325095Z" fill="#a2e1dc" stroke="#a2e1dc" fill-opacity="1" stroke-opacity="1"/><path d="M-78.07051735930145,179.74893922917545L-34.37850776128471,334.20171325095L108.55093387886882,215.84633404389024Z" fill="#bbf3d8" stroke="#bbf3d8" fill-opacity="1" stroke-opacity="1"/><path d="M108.55093387886882,215.84633404389024L-34.37850776128471,334.20171325095L132.6862898748368,388.3512478787452Z" fill="#98e4d7" stroke="#98e4d7" fill-opacity="1" stroke-opacity="1"/><path d="M108.55093387886882,215.84633404389024L132.6862898748368,388.3512478787452L236.7722428869456,186.2018807977438Z" fill="#96e5d2" stroke="#96e5d2" fill-opacity="1" stroke-opacity="1"/><path d="M236.7722428869456,186.2018807977438L132.6862898748368,388.3512478787452L246.37870743870735,427.67013447359204Z" fill="#7dd5d0" stroke="#7dd5d0" fill-opacity="1" stroke-opacity="1"/><path d="M236.7722428869456,186.2018807977438L246.37870743870735,427.67013447359204L408.4056128002703,356.4401590358466Z" fill="#6dd1cf" stroke="#6dd1cf" fill-opacity="1" stroke-opacity="1"/><path d="M236.7722428869456,186.2018807977438L408.4056128002703,356.4401590358466L395.1787231396884,187.5746934581548Z" fill="#7adacf" stroke="#7adacf" fill-opacity="1" stroke-opacity="1"/><path d="M395.1787231396884,187.5746934581548L408.4056128002703,356.4401590358466L528.2104126084596,204.67947732657194Z" fill="#66d2d2" stroke="#66d2d2" fill-opacity="1" stroke-opacity="1"/><path d="M528.2104126084596,204.67947732657194L408.4056128002703,356.4401590358466L498.5560189280659,413.6645830795169Z" fill="#4ac3d5" stroke="#4ac3d5" fill-opacity="1" stroke-opacity="1"/><path d="M528.2104126084596,204.67947732657194L498.5560189280659,413.6645830795169L641.6915336251259,392.3461562767625Z" fill="#42bad4" stroke="#42bad4" fill-opacity="1" stroke-opacity="1"/><path d="M528.2104126084596,204.67947732657194L641.6915336251259,392.3461562767625L646.1707298085093,226.2776019796729Z" fill="#4cc0d3" stroke="#4cc0d3" fill-opacity="1" stroke-opacity="1"/><path d="M646.1707298085093,226.2776019796729L641.6915336251259,392.3461562767625L874.517704853788,270.09864376857877Z" fill="#3eb1d2" stroke="#3eb1d2" fill-opacity="1" stroke-opacity="1"/><path d="M874.517704853788,270.09864376857877L641.6915336251259,392.3461562767625L868.2455060631037,394.5171695854515Z" fill="#389bcc" stroke="#389bcc" fill-opacity="1" stroke-opacity="1"/><path d="M874.517704853788,270.09864376857877L868.2455060631037,394.5171695854515L968.3419985231012,387.28898962028325Z" fill="#368bc5" stroke="#368bc5" fill-opacity="1" stroke-opacity="1"/><path d="M874.517704853788,270.09864376857877L968.3419985231012,387.28898962028325L1092.3569550924003,241.8565891496837Z" fill="#3a8cc2" stroke="#3a8cc2" fill-opacity="1" stroke-opacity="1"/><path d="M874.517704853788,270.09864376857877L1092.3569550924003,241.8565891496837L1023.8546541519463,170.20780325867236Z" fill="#5593bc" stroke="#5593bc" fill-opacity="1" stroke-opacity="1"/><path d="M1092.3569550924003,241.8565891496837L968.3419985231012,387.28898962028325L1162.297181552276,318.72094525024295Z" fill="#377aba" stroke="#377aba" fill-opacity="1" stroke-opacity="1"/><path d="M1092.3569550924003,241.8565891496837L1162.297181552276,318.72094525024295L1231.4541882276535,247.76642382144928Z" fill="#4275b3" stroke="#4275b3" fill-opacity="1" stroke-opacity="1"/><path d="M1231.4541882276535,247.76642382144928L1162.297181552276,318.72094525024295L1310.538283959031,425.6376890838146Z" fill="#3365ae" stroke="#3365ae" fill-opacity="1" stroke-opacity="1"/><path d="M1231.4541882276535,247.76642382144928L1310.538283959031,425.6376890838146L1383.6234915722162,264.70774275250733Z" fill="#3469aa" stroke="#3469aa" fill-opacity="1" stroke-opacity="1"/><path d="M1383.6234915722162,264.70774275250733L1310.538283959031,425.6376890838146L1403.0145349167287,425.2883420046419Z" fill="#2e5ca3" stroke="#2e5ca3" fill-opacity="1" stroke-opacity="1"/><path d="M1383.6234915722162,264.70774275250733L1403.0145349167287,425.2883420046419L1469.0752463042736,471.9546330627054Z" fill="#2c599e" stroke="#2c599e" fill-opacity="1" stroke-opacity="1"/><path d="M-34.37850776128471,334.20171325095L-110.20569020882249,528.7465293053538L18.744923500344157,506.14840334281325Z" fill="#99c8d4" stroke="#99c8d4" fill-opacity="1" stroke-opacity="1"/><path d="M-34.37850776128471,334.20171325095L18.744923500344157,506.14840334281325L132.6862898748368,388.3512478787452Z" fill="#96d0d4" stroke="#96d0d4" fill-opacity="1" stroke-opacity="1"/><path d="M132.6862898748368,388.3512478787452L18.744923500344157,506.14840334281325L253.59795162454247,496.9832213502377Z" fill="#80bccb" stroke="#80bccb" fill-opacity="1" stroke-opacity="1"/><path d="M132.6862898748368,388.3512478787452L253.59795162454247,496.9832213502377L246.37870743870735,427.67013447359204Z" fill="#73bdca" stroke="#73bdca" fill-opacity="1" stroke-opacity="1"/><path d="M246.37870743870735,427.67013447359204L253.59795162454247,496.9832213502377L408.4056128002703,356.4401590358466Z" fill="#63b9ca" stroke="#63b9ca" fill-opacity="1" stroke-opacity="1"/><path d="M408.4056128002703,356.4401590358466L253.59795162454247,496.9832213502377L365.65168546512723,572.9675620794296Z" fill="#59a9c6" stroke="#59a9c6" fill-opacity="1" stroke-opacity="1"/><path d="M408.4056128002703,356.4401590358466L365.65168546512723,572.9675620794296L498.5560189280659,413.6645830795169Z" fill="#4baccd" stroke="#4baccd" fill-opacity="1" stroke-opacity="1"/><path d="M498.5560189280659,413.6645830795169L365.65168546512723,572.9675620794296L547.478400086984,536.0963255446404Z" fill="#4097c6" stroke="#4097c6" fill-opacity="1" stroke-opacity="1"/><path d="M498.5560189280659,413.6645830795169L547.478400086984,536.0963255446404L641.6915336251259,392.3461562767625Z" fill="#39a0ce" stroke="#39a0ce" fill-opacity="1" stroke-opacity="1"/><path d="M641.6915336251259,392.3461562767625L547.478400086984,536.0963255446404L658.7024585623294,567.4901048932225Z" fill="#358bc6" stroke="#358bc6" fill-opacity="1" stroke-opacity="1"/><path d="M641.6915336251259,392.3461562767625L658.7024585623294,567.4901048932225L850.0853958539665,506.53145687654614Z" fill="#3183c4" stroke="#3183c4" fill-opacity="1" stroke-opacity="1"/><path d="M641.6915336251259,392.3461562767625L850.0853958539665,506.53145687654614L868.2455060631037,394.5171695854515Z" fill="#318bc9" stroke="#318bc9" fill-opacity="1" stroke-opacity="1"/><path d="M868.2455060631037,394.5171695854515L850.0853958539665,506.53145687654614L968.3419985231012,387.28898962028325Z" fill="#307bc1" stroke="#307bc1" fill-opacity="1" stroke-opacity="1"/><path d="M968.3419985231012,387.28898962028325L850.0853958539665,506.53145687654614L939.1805159579962,580.8581026364118Z" fill="#2d66b8" stroke="#2d66b8" fill-opacity="1" stroke-opacity="1"/><path d="M968.3419985231012,387.28898962028325L939.1805159579962,580.8581026364118L1074.3354827910662,550.585278365761Z" fill="#2c57b0" stroke="#2c57b0" fill-opacity="1" stroke-opacity="1"/><path d="M968.3419985231012,387.28898962028325L1074.3354827910662,550.585278365761L1162.297181552276,318.72094525024295Z" fill="#2e64b6" stroke="#2e64b6" fill-opacity="1" stroke-opacity="1"/><path d="M1162.297181552276,318.72094525024295L1074.3354827910662,550.585278365761L1310.538283959031,425.6376890838146Z" fill="#2b50ad" stroke="#2b50ad" fill-opacity="1" stroke-opacity="1"/><path d="M1310.538283959031,425.6376890838146L1074.3354827910662,550.585278365761L1244.8266239929944,580.2711416501552Z" fill="#2836a0" stroke="#2836a0" fill-opacity="1" stroke-opacity="1"/><path d="M1310.538283959031,425.6376890838146L1244.8266239929944,580.2711416501552L1414.9361589364707,624.8185674380511Z" fill="#262e94" stroke="#262e94" fill-opacity="1" stroke-opacity="1"/><path d="M1310.538283959031,425.6376890838146L1414.9361589364707,624.8185674380511L1403.0145349167287,425.2883420046419Z" fill="#263e97" stroke="#263e97" fill-opacity="1" stroke-opacity="1"/><path d="M1403.0145349167287,425.2883420046419L1414.9361589364707,624.8185674380511L1469.0752463042736,471.9546330627054Z" fill="#263992" stroke="#263992" fill-opacity="1" stroke-opacity="1"/><path d="M-110.20569020882249,528.7465293053538L-114.65616672299802,855.6978190597147L-109.22180227003992,650.8039794769138Z" fill="#9385b7" stroke="#9385b7" fill-opacity="1" stroke-opacity="1"/><path d="M-110.20569020882249,528.7465293053538L-109.22180227003992,650.8039794769138L18.744923500344157,506.14840334281325Z" fill="#97a8c6" stroke="#97a8c6" fill-opacity="1" stroke-opacity="1"/><path d="M18.744923500344157,506.14840334281325L-109.22180227003992,650.8039794769138L123.32226469181478,704.3576297163963Z" fill="#9396ba" stroke="#9396ba" fill-opacity="1" stroke-opacity="1"/><path d="M18.744923500344157,506.14840334281325L123.32226469181478,704.3576297163963L181.14101040177047,619.7877770103514Z" fill="#8192b7" stroke="#8192b7" fill-opacity="1" stroke-opacity="1"/><path d="M18.744923500344157,506.14840334281325L181.14101040177047,619.7877770103514L253.59795162454247,496.9832213502377Z" fill="#7ba4bf" stroke="#7ba4bf" fill-opacity="1" stroke-opacity="1"/><path d="M253.59795162454247,496.9832213502377L181.14101040177047,619.7877770103514L365.65168546512723,572.9675620794296Z" fill="#6594b7" stroke="#6594b7" fill-opacity="1" stroke-opacity="1"/><path d="M365.65168546512723,572.9675620794296L181.14101040177047,619.7877770103514L420.9672381542623,627.6138812955469Z" fill="#5983b2" stroke="#5983b2" fill-opacity="1" stroke-opacity="1"/><path d="M365.65168546512723,572.9675620794296L420.9672381542623,627.6138812955469L547.478400086984,536.0963255446404Z" fill="#4383ba" stroke="#4383ba" fill-opacity="1" stroke-opacity="1"/><path d="M547.478400086984,536.0963255446404L420.9672381542623,627.6138812955469L559.1910231672227,702.3937558662146Z" fill="#3672b6" stroke="#3672b6" fill-opacity="1" stroke-opacity="1"/><path d="M547.478400086984,536.0963255446404L559.1910231672227,702.3937558662146L658.7024585623294,567.4901048932225Z" fill="#336fb7" stroke="#336fb7" fill-opacity="1" stroke-opacity="1"/><path d="M658.7024585623294,567.4901048932225L559.1910231672227,702.3937558662146L725.8412156626582,678.1371163297445Z" fill="#2f5baf" stroke="#2f5baf" fill-opacity="1" stroke-opacity="1"/><path d="M658.7024585623294,567.4901048932225L725.8412156626582,678.1371163297445L810.9371024742723,615.0826068688184Z" fill="#2d5ab1" stroke="#2d5ab1" fill-opacity="1" stroke-opacity="1"/><path d="M658.7024585623294,567.4901048932225L810.9371024742723,615.0826068688184L850.0853958539665,506.53145687654614Z" fill="#2d66b8" stroke="#2d66b8" fill-opacity="1" stroke-opacity="1"/><path d="M850.0853958539665,506.53145687654614L810.9371024742723,615.0826068688184L939.1805159579962,580.8581026364118Z" fill="#2b57b1" stroke="#2b57b1" fill-opacity="1" stroke-opacity="1"/><path d="M939.1805159579962,580.8581026364118L810.9371024742723,615.0826068688184L993.4577406384051,620.3551367484033Z" fill="#2a45a8" stroke="#2a45a8" fill-opacity="1" stroke-opacity="1"/><path d="M939.1805159579962,580.8581026364118L993.4577406384051,620.3551367484033L1074.3354827910662,550.585278365761Z" fill="#293ea5" stroke="#293ea5" fill-opacity="1" stroke-opacity="1"/><path d="M1074.3354827910662,550.585278365761L993.4577406384051,620.3551367484033L1120.589548163116,714.0942056849599Z" fill="#27289a" stroke="#27289a" fill-opacity="1" stroke-opacity="1"/><path d="M1074.3354827910662,550.585278365761L1120.589548163116,714.0942056849599L1244.8266239929944,580.2711416501552Z" fill="#262096" stroke="#262096" fill-opacity="1" stroke-opacity="1"/><path d="M1244.8266239929944,580.2711416501552L1120.589548163116,714.0942056849599L1277.2083489596844,734.0184242650867Z" fill="#240788" stroke="#240788" fill-opacity="1" stroke-opacity="1"/><path d="M1244.8266239929944,580.2711416501552L1277.2083489596844,734.0184242650867L1414.9361589364707,624.8185674380511Z" fill="#230f86" stroke="#230f86" fill-opacity="1" stroke-opacity="1"/><path d="M1469.0752463042736,471.9546330627054L1414.9361589364707,624.8185674380511L1393.133824216202,874.6257302630693Z" fill="#220c7c" stroke="#220c7c" fill-opacity="1" stroke-opacity="1"/><path d="M-109.22180227003992,650.8039794769138L-114.65616672299802,855.6978190597147L18.497863691300154,856.7160245217383Z" fill="#9180a5" stroke="#9180a5" fill-opacity="1" stroke-opacity="1"/><path d="M-109.22180227003992,650.8039794769138L18.497863691300154,856.7160245217383L123.32226469181478,704.3576297163963Z" fill="#907fa9" stroke="#907fa9" fill-opacity="1" stroke-opacity="1"/><path d="M123.32226469181478,704.3576297163963L18.497863691300154,856.7160245217383L166.9294818956405,862.755885925144Z" fill="#7d789a" stroke="#7d789a" fill-opacity="1" stroke-opacity="1"/><path d="M123.32226469181478,704.3576297163963L166.9294818956405,862.755885925144L383.81849309429526,830.1365018170327Z" fill="#676f96" stroke="#676f96" fill-opacity="1" stroke-opacity="1"/><path d="M123.32226469181478,704.3576297163963L383.81849309429526,830.1365018170327L181.14101040177047,619.7877770103514Z" fill="#686fa1" stroke="#686fa1" fill-opacity="1" stroke-opacity="1"/><path d="M181.14101040177047,619.7877770103514L383.81849309429526,830.1365018170327L420.9672381542623,627.6138812955469Z" fill="#5669a6" stroke="#5669a6" fill-opacity="1" stroke-opacity="1"/><path d="M420.9672381542623,627.6138812955469L383.81849309429526,830.1365018170327L559.1910231672227,702.3937558662146Z" fill="#3d5fa6" stroke="#3d5fa6" fill-opacity="1" stroke-opacity="1"/><path d="M559.1910231672227,702.3937558662146L383.81849309429526,830.1365018170327L556.2966868188232,802.0351732894778Z" fill="#335c9f" stroke="#335c9f" fill-opacity="1" stroke-opacity="1"/><path d="M559.1910231672227,702.3937558662146L556.2966868188232,802.0351732894778L725.8412156626582,678.1371163297445Z" fill="#2f50a4" stroke="#2f50a4" fill-opacity="1" stroke-opacity="1"/><path d="M725.8412156626582,678.1371163297445L556.2966868188232,802.0351732894778L699.4048820156604,855.0422465801239Z" fill="#2b4b9c" stroke="#2b4b9c" fill-opacity="1" stroke-opacity="1"/><path d="M725.8412156626582,678.1371163297445L699.4048820156604,855.0422465801239L808.087954390794,790.5946148838848Z" fill="#28429b" stroke="#28429b" fill-opacity="1" stroke-opacity="1"/><path d="M725.8412156626582,678.1371163297445L808.087954390794,790.5946148838848L810.9371024742723,615.0826068688184Z" fill="#293da4" stroke="#293da4" fill-opacity="1" stroke-opacity="1"/><path d="M810.9371024742723,615.0826068688184L808.087954390794,790.5946148838848L974.992385962978,784.8424236383289Z" fill="#273199" stroke="#273199" fill-opacity="1" stroke-opacity="1"/><path d="M810.9371024742723,615.0826068688184L974.992385962978,784.8424236383289L993.4577406384051,620.3551367484033Z" fill="#282f9d" stroke="#282f9d" fill-opacity="1" stroke-opacity="1"/><path d="M993.4577406384051,620.3551367484033L974.992385962978,784.8424236383289L1120.589548163116,714.0942056849599Z" fill="#261891" stroke="#261891" fill-opacity="1" stroke-opacity="1"/><path d="M1120.589548163116,714.0942056849599L974.992385962978,784.8424236383289L1121.9590364210308,815.3630732093006Z" fill="#231284" stroke="#231284" fill-opacity="1" stroke-opacity="1"/><path d="M1120.589548163116,714.0942056849599L1121.9590364210308,815.3630732093006L1277.2083489596844,734.0184242650867Z" fill="#220380" stroke="#220380" fill-opacity="1" stroke-opacity="1"/><path d="M1277.2083489596844,734.0184242650867L1121.9590364210308,815.3630732093006L1323.430273057893,792.4906372278929Z" fill="#210077" stroke="#210077" fill-opacity="1" stroke-opacity="1"/><path d="M1277.2083489596844,734.0184242650867L1323.430273057893,792.4906372278929L1414.9361589364707,624.8185674380511Z" fill="#210079" stroke="#210079" fill-opacity="1" stroke-opacity="1"/><path d="M1414.9361589364707,624.8185674380511L1323.430273057893,792.4906372278929L1393.133824216202,874.6257302630693Z" fill="#1f0070" stroke="#1f0070" fill-opacity="1" stroke-opacity="1"/><path d="M-114.65616672299802,855.6978190597147L166.9294818956405,862.755885925144L18.497863691300154,856.7160245217383Z" fill="#8a7e97" stroke="#8a7e97" fill-opacity="1" stroke-opacity="1"/><path d="M166.9294818956405,862.755885925144L1393.133824216202,874.6257302630693L699.4048820156604,855.0422465801239Z" fill="#25418d" stroke="#25418d" fill-opacity="1" stroke-opacity="1"/><path d="M166.9294818956405,862.755885925144L699.4048820156604,855.0422465801239L383.81849309429526,830.1365018170327Z" fill="#416292" stroke="#416292" fill-opacity="1" stroke-opacity="1"/><path d="M383.81849309429526,830.1365018170327L699.4048820156604,855.0422465801239L556.2966868188232,802.0351732894778Z" fill="#2f5797" stroke="#2f5797" fill-opacity="1" stroke-opacity="1"/><path d="M699.4048820156604,855.0422465801239L1393.133824216202,874.6257302630693L1121.9590364210308,815.3630732093006Z" fill="#211279" stroke="#211279" fill-opacity="1" stroke-opacity="1"/><path d="M699.4048820156604,855.0422465801239L1121.9590364210308,815.3630732093006L974.992385962978,784.8424236383289Z" fill="#242788" stroke="#242788" fill-opacity="1" stroke-opacity="1"/><path d="M699.4048820156604,855.0422465801239L974.992385962978,784.8424236383289L808.087954390794,790.5946148838848Z" fill="#253690" stroke="#253690" fill-opacity="1" stroke-opacity="1"/><path d="M1121.9590364210308,815.3630732093006L1393.133824216202,874.6257302630693L1323.430273057893,792.4906372278929Z" fill="#1f006e" stroke="#1f006e" fill-opacity="1" stroke-opacity="1"/></g></svg>