<svg version="1.1" xmlns="http://www.w3.org/2000/svg" xmlns:xlink="http://www.w3.org/1999/xlink" width="752" height="128" viewBox="0 0 752 128" style="display:none;">
<defs>
<g id="icon-phone">
	<path class="path1" d="M17.966 17.966c-2.533 2.534-5.467 4.957-6.627 3.795-1.661-1.659-2.683-3.106-6.344-0.165s-0.85 4.902 0.76 6.512c1.856 1.854 8.774 0.098 15.614-6.741 6.837-6.838 8.597-13.758 6.739-15.614-1.608-1.61-3.568-4.419-6.51-0.76s-1.496 4.683 0.165 6.344c1.157 1.162-1.264 4.094-3.797 6.629z"></path>
</g>
<g id="icon-mobile">
	<path class="path1" d="M22.203 0h-12.406c-1.797 0-3.266 1.469-3.266 3.266v25.469c0 1.795 1.469 3.266 3.266 3.266h12.406c1.797 0 3.266-1.47 3.266-3.266v-25.469c0-1.797-1.469-3.266-3.266-3.266zM16 30.694c-1.261 0-2.285-0.731-2.285-1.634s1.024-1.634 2.285-1.634c1.262 0 2.285 0.731 2.285 1.634s-1.022 1.634-2.285 1.634zM22.856 25.795h-13.714v-21.55h13.714v21.55z"></path>
</g>
<g id="icon-mail">
	<path class="path1" d="M2.55 8.458c0.781 0.421 11.598 6.23 12.002 6.446 0.402 0.216 0.923 0.32 1.448 0.32 0.526 0 1.048-0.104 1.45-0.322 0.403-0.216 11.219-6.026 12-6.446 0.782-0.419 1.522-1.736 0.086-1.736h-27.070c-1.435 0-0.698 1.317 0.085 1.738zM29.781 11.658c-0.888 0.464-11.787 6.162-12.331 6.446s-0.923 0.322-1.45 0.322c-0.525 0-0.904-0.037-1.448-0.322s-11.445-5.984-12.331-6.446c-0.626-0.326-0.621 0.056-0.621 0.35s0 11.736 0 11.736c0 0.672 0.894 1.536 1.587 1.536h25.627c0.694 0 1.586-0.864 1.586-1.534 0 0 0-11.442 0-11.736 0-0.296 0.006-0.678-0.619-0.352z"></path>
</g>
<g id="icon-vcard">
	<path class="path1" d="M28.8 3.2h-25.6c-1.76 0-3.2 1.44-3.2 3.2v19.2c0 1.76 1.44 3.2 3.2 3.2h25.6c1.762 0 3.2-1.44 3.2-3.2v-19.2c0-1.76-1.438-3.2-3.2-3.2zM28.8 25.6h-25.6v-19.2h25.6v19.2zM14.4 19.36h-8v2.88h8v-2.88zM14.4 14.56h-8v2.88h8v-2.88zM14.4 9.76h-8v2.88h8v-2.88zM25.44 20c0 0-2.72-0.71-2.72-2.109 0-1.331 1.762-1.891 1.762-4.611 0-2.208-0.672-3.52-2.882-3.52s-2.88 1.31-2.88 3.52c0 2.72 1.76 3.28 1.76 4.611 0 1.398-2.718 2.109-2.718 2.109-0.162 0-0.162 2.24-0.162 2.24h8c0 0 0-2.24-0.16-2.24z"></path>
</g>
<g id="icon-export">
	<path class="path1" d="M24 25.28h-20.8v-14.4h4.152c0 0 1.102-1.434 3.472-3.2h-9.224c-0.883 0-1.6 0.717-1.6 1.6v17.6c0 0.885 0.717 1.6 1.6 1.6h24c0.885 0 1.6-0.715 1.6-1.6v-5.994l-3.2 2.632v1.762zM21.379 14.16v5.68l10.621-8.322-10.621-7.998v5.008c-12.899 0.002-12.899 12.752-12.899 12.752 3.651-5.997 5.898-7.12 12.899-7.12z"></path>
</g>
<g id="icon-location">
	<path class="path1" d="M16 3.2c-4.419 0-8 3.582-8 8 0 7.638 8 17.6 8 17.6s8-9.962 8-17.6c0-4.418-3.581-8-8-8zM16 15.616c-2.386 0-4.32-1.934-4.32-4.32s1.934-4.32 4.32-4.32 4.32 1.934 4.32 4.32-1.934 4.32-4.32 4.32z"></path>
</g>
<g id="icon-house">
	<path class="path1" d="M30.032 16.48l-12.838-12.85c-0.656-0.682-1.73-0.682-2.386 0l-12.84 12.85c-0.658 0.68-0.413 1.238 0.544 1.238h2.677v9.869c0 0.712 0.030 1.294 1.318 1.294h6.232v-9.901h6.52v9.901h6.542c0.982 0 1.010-0.581 1.010-1.294v-9.869h2.675c0.955 0 1.202-0.557 0.546-1.238z"></path>
</g>
<g id="icon-link">
	<path class="path1" d="M12.574 23.51l-1.296 1.286c-1.123 1.112-2.949 1.114-4.070 0-0.539-0.536-0.835-1.245-0.835-2.002s0.298-1.467 0.835-2.003l4.768-4.731c0.987-0.981 2.846-2.422 4.202-1.078 0.622 0.618 1.627 0.613 2.243-0.008 0.618-0.621 0.614-1.626-0.008-2.243-2.302-2.285-5.707-1.862-8.672 1.078l-4.768 4.731c-1.142 1.136-1.773 2.646-1.773 4.254 0 1.606 0.63 3.117 1.774 4.253 1.178 1.17 2.723 1.752 4.269 1.752s3.094-0.582 4.272-1.752l1.296-1.288c0.622-0.618 0.626-1.622 0.008-2.242-0.618-0.621-1.622-0.624-2.245-0.008zM27.026 5.134c-2.474-2.454-5.931-2.587-8.222-0.315l-1.614 1.602c-0.622 0.618-0.627 1.621-0.010 2.243 0.619 0.622 1.622 0.626 2.243 0.008l1.614-1.602c1.186-1.178 2.739-0.69 3.754 0.315 0.539 0.534 0.835 1.246 0.835 2.002 0 0.757-0.298 1.467-0.835 2.002l-5.088 5.046c-2.325 2.307-3.418 1.226-3.883 0.763-0.622-0.618-1.626-0.613-2.242 0.008-0.618 0.622-0.614 1.627 0.008 2.243 1.067 1.059 2.288 1.584 3.565 1.584 1.565 0 3.218-0.787 4.789-2.347l5.086-5.046c1.144-1.134 1.774-2.645 1.774-4.251s-0.63-3.118-1.774-4.254z"></path>
</g>
<g id="icon-new">
	<path class="path1" d="M29.904 19.754l-2.763-2.464c-0.8-0.714-0.8-1.878 0-2.592l2.763-2.462c0.8-0.714 0.586-1.378-0.475-1.478l-3.662-0.347c-1.061-0.101-1.632-1.013-1.267-2.027l1.944-5.411c0.365-1.014-0.082-1.384-0.99-0.821l-4.322 2.672c-0.909 0.563-2.083 0.256-2.61-0.683l-1.566-2.794c-0.525-0.939-1.395-0.944-1.931-0.011l-1.454 2.531c-0.536 0.933-1.768 1.331-2.738 0.885l-2.56-1.176c-0.971-0.445-1.717 0.070-1.659 1.149l0.139 2.584c0.058 1.077-0.738 2.187-1.766 2.464l-2.472 0.664c-1.029 0.278-1.218 1.088-0.418 1.802l2.763 2.462c0.8 0.712 0.8 1.878 0 2.59l-2.763 2.461c-0.8 0.715-0.589 1.403 0.469 1.531l3.352 0.406c1.058 0.131 1.648 1.075 1.31 2.098l-1.72 5.213c-0.338 1.026 0.144 1.426 1.069 0.888l3.941-2.278c0.926-0.538 2.17-0.24 2.765 0.653l1.637 2.459c0.594 0.898 1.488 0.846 1.982-0.109l1.438-2.771c0.498-0.957 1.685-1.347 2.638-0.869l2.774 1.387c0.957 0.478 1.691-0.013 1.634-1.091l-0.139-2.584c-0.058-1.078 0.738-2.187 1.766-2.466l2.47-0.662c1.032-0.28 1.221-1.090 0.421-1.802zM17.6 22.712h-3.2v-3.36h3.2v3.36zM17.6 17.594h-3.2v-8.32h3.2v8.32z"></path>
</g>
<g id="icon-newspaper">
	<path class="path1" d="M25.6 1.6h-19.2c-1.76 0-3.2 1.44-3.2 3.2v22.4c0 1.76 1.44 3.2 3.2 3.2h19.2c1.762 0 3.2-1.44 3.2-3.2v-22.4c0-1.76-1.438-3.2-3.2-3.2zM25.6 27.2h-19.2v-22.4h19.2v22.4zM17.6 19.2h-8v1.6h8v-1.6zM22.4 12.8h-6.4v1.6h6.4v-1.6zM16 11.2h6.4v-3.2h-6.4v3.2zM14.4 8h-4.8v6.4h4.8v-6.4zM12.8 16h-3.2v1.6h3.2v-1.6zM14.4 17.6h8v-1.6h-8v1.6zM22.4 22.4h-12.8v1.6h12.8v-1.6zM19.2 20.8h3.2v-1.6h-3.2v1.6z"></path>
</g>
<g id="icon-calendar">
	<path class="path1" d="M27.2 4.8h-1.44v3.2h-5.12v-3.2h-9.28v3.2h-5.12v-3.2h-1.44c-1.76 0-3.2 1.44-3.2 3.2v19.2c0 1.76 1.44 3.2 3.2 3.2h22.4c1.76 0 3.2-1.44 3.2-3.2v-19.2c0-1.76-1.44-3.2-3.2-3.2zM27.2 27.2h-22.4v-12.8h22.4v12.8zM9.92 1.6h-2.24v5.44h2.24v-5.44zM24.32 1.6h-2.24v5.44h2.24v-5.44z"></path>
</g>
<g id="icon-earth">
	<path class="path1" d="M16 0.638c-8.47 0-15.36 6.893-15.36 15.362 0 8.47 6.89 15.362 15.36 15.362s15.36-6.891 15.36-15.362c0-8.469-6.89-15.362-15.36-15.362zM29.101 16c0 2.997-1.018 5.762-2.714 7.97-0.48-0.376-0.989-1.389-0.509-2.438 0.483-1.056 0.61-3.501 0.499-4.451-0.106-0.95-0.6-3.242-1.944-3.264-1.339-0.021-2.259-0.462-3.056-2.053-1.653-3.307 3.102-3.944 1.45-5.776-0.462-0.514-2.853 2.118-3.203-1.389-0.024-0.251 0.216-0.627 0.536-1.016 5.19 1.744 8.941 6.65 8.941 12.418zM14.2 3.030c-0.312 0.608-1.139 0.858-1.643 1.317-1.093 0.989-1.563 0.853-2.154 1.803-0.592 0.95-2.506 2.318-2.506 3.006 0 0.686 0.966 1.499 1.45 1.341 0.483-0.16 1.757-0.15 2.506 0.112 0.75 0.266 6.264 0.53 4.506 5.19-0.557 1.482-2.995 1.232-3.645 3.686-0.098 0.36-0.434 1.898-0.458 2.4-0.038 0.778 0.55 3.709-0.2 3.709-0.754 0-2.779-2.622-2.779-3.098s-0.526-2.142-0.526-3.568-2.427-1.403-2.427-3.299c0-1.712 1.317-2.563 1.021-3.381-0.291-0.816-2.603-0.845-3.566-0.944 1.683-4.371 5.646-7.616 10.422-8.275zM11.88 28.432c0.787-0.414 0.867-0.952 1.581-0.981 0.816-0.035 1.48-0.318 2.398-0.52 0.818-0.178 2.277-1.006 3.565-1.112 1.083-0.090 3.224 0.056 3.8 1.102-2.074 1.376-4.557 2.179-7.224 2.179-1.44 0-2.824-0.237-4.12-0.669z"></path>
</g>
<g id="icon-keyboard">
	<path class="path1" d="M29.76 6.4h-27.52c-1.232 0-2.24 1.008-2.24 2.24v14.722c0 1.23 1.008 2.238 2.24 2.238h27.52c1.234 0 2.24-1.008 2.24-2.238v-14.722c0-1.232-1.008-2.24-2.24-2.24zM17.6 9.6h3.2v3.2h-3.2v-3.2zM22.4 14.4v3.2h-3.2v-3.2h3.2zM12.8 9.6h3.2v3.2h-3.2v-3.2zM17.6 14.4v3.2h-3.2v-3.2h3.2zM8 9.6h3.2v3.2h-3.2v-3.2zM12.8 14.4v3.2h-3.2v-3.2h3.2zM3.2 9.6h3.2v3.2h-3.2v-3.2zM8 14.4v3.2h-3.2v-3.2h3.2zM6.4 22.4h-3.2v-3.2h3.2v3.2zM24 22.4h-16v-3.2h16v3.2zM28.8 22.4h-3.2v-3.2h3.2v3.2zM24 17.6v-3.2h3.2v3.2h-3.2zM28.8 12.8h-6.4v-3.2h6.4v3.2z"></path>
</g>
<g id="icon-graph">
	<path class="path1" d="M31.181 3.819l-7.406 12.066c-0.275 0.446-0.813 0.52-1.197 0.162l-3.581-3.354c-0.384-0.358-0.934-0.294-1.226 0.144l-5.029 7.584c-0.29 0.437-0.845 0.506-1.234 0.154l-2.341-2.138c-0.389-0.354-0.974-0.307-1.302 0.101l-7.374 9.197c-0.33 0.411-0.168 0.746 0.355 0.746h30.834v-24.52c0.002-0.526-0.224-0.59-0.499-0.141z"></path>
</g>
<g id="icon-logout">
	<path class="path1" d="M17.634 27.2h-12.866v-22.4h12.864v4.8h3.168v-4.8c0-1.76-1.438-3.2-3.2-3.2h-12.8c-1.76 0-3.2 1.44-3.2 3.2v22.4c0 1.76 1.44 3.2 3.2 3.2h12.8c1.762 0 3.2-1.44 3.2-3.2v-3.2h-3.166v3.2zM30.4 16.8l-6.366-6.24v3.84h-14.4v4.8h14.4v3.84l6.366-6.24z"></path>
</g>
<g id="icon-login">
	<path class="path1" d="M27.2 1.6h-14.4c-1.76 0-3.168 1.44-3.168 3.2v4.8h3.168v-4.8h14.4v22.4h-14.4v-3.2h-3.168v3.2c0 1.76 1.408 3.2 3.168 3.2h14.4c1.76 0 3.2-1.44 3.2-3.2v-22.4c0-1.76-1.44-3.2-3.2-3.2zM16 23.040l6.4-6.24-6.4-6.24v3.84h-14.4v4.8h14.4v3.84z"></path>
</g>
<g id="icon-minus">
	<path class="path1" d="M24.318 14.4h-16.638c-0.885 0-0.96 0.717-0.96 1.6s0.075 1.6 0.96 1.6h16.638c0.885 0 0.962-0.717 0.962-1.6s-0.077-1.6-0.962-1.6z"></path>
</g>
<g id="icon-plus">
	<path class="path1" d="M24.318 14.4h-6.72v-6.72c0-0.883-0.715-0.96-1.6-0.96-0.883 0-1.6 0.075-1.6 0.96v6.72h-6.718c-0.885 0-0.96 0.717-0.96 1.6s0.075 1.6 0.96 1.6h6.718v6.72c0 0.883 0.717 0.96 1.6 0.96 0.885 0 1.6-0.077 1.6-0.96v-6.72h6.72c0.885 0 0.962-0.717 0.962-1.6s-0.077-1.6-0.962-1.6z"></path>
</g>
<g id="icon-blocked">
	<path class="path1" d="M16 0.64c-8.483 0-15.36 6.877-15.36 15.36s6.877 15.36 15.36 15.36c8.485 0 15.36-6.877 15.36-15.36s-6.875-15.36-15.36-15.36zM24.266 7.738l-0.003-0.003c0 0.002 0.003 0.003 0.003 0.003zM4.314 16c0-6.454 5.232-11.686 11.686-11.686 2.806 0 5.382 0.989 7.398 2.637l-16.446 16.445c-1.65-2.014-2.638-4.589-2.638-7.395zM7.734 24.262l0.003 0.003c-0.002-0.002-0.002-0.002-0.003-0.003zM16 27.688c-2.806 0-5.381-0.99-7.395-2.638l16.442-16.445c1.65 2.014 2.64 4.589 2.64 7.395 0.002 6.454-5.234 11.688-11.686 11.688z"></path>
</g>
<g id="icon-info">
	<path class="path1" d="M19.891 0c2.144 0 3.216 1.462 3.216 3.133 0 2.086-1.862 4.018-4.285 4.018-2.032 0-3.216-1.2-3.16-3.182 0-1.672 1.408-3.968 4.229-3.968zM13.294 32c-1.693 0-2.933-1.043-1.749-5.637l1.942-8.146c0.338-1.304 0.394-1.827 0-1.827-0.509 0-2.704 0.901-4.003 1.789l-0.845-1.41c4.117-3.498 8.851-5.547 10.882-5.547 1.691 0 1.971 2.035 1.128 5.166l-2.226 8.563c-0.394 1.514-0.226 2.035 0.168 2.035 0.509 0 2.171-0.629 3.806-1.933l0.96 1.304c-4.002 4.074-8.373 5.642-10.064 5.642z"></path>
</g>
<g id="icon-info2">
	<path class="path1" d="M15.803 1.282c-8.128 0.109-14.63 6.787-14.522 14.917 0.109 8.125 6.787 14.629 14.915 14.52s14.63-6.787 14.522-14.917c-0.107-8.126-6.787-14.629-14.915-14.52zM17.435 6.187c1.496 0 1.938 0.867 1.938 1.861 0 1.24-0.994 2.387-2.688 2.387-1.418 0-2.091-0.714-2.051-1.891 0-0.994 0.832-2.357 2.802-2.357zM13.598 25.2c-1.022 0-1.771-0.621-1.056-3.35l1.173-4.838c0.203-0.776 0.237-1.086 0-1.086-0.306 0-1.634 0.536-2.419 1.064l-0.51-0.837c2.488-2.077 5.349-3.296 6.574-3.296 1.022 0 1.192 1.21 0.682 3.070l-1.344 5.088c-0.237 0.899-0.134 1.21 0.102 1.21 0.306 0 1.312-0.371 2.301-1.149l0.578 0.776c-2.418 2.418-5.056 3.349-6.080 3.349z"></path>
</g>
<g id="icon-question">
	<path class="path1" d="M22.544 3.574c-1.826-1.317-4.115-1.974-6.874-1.974-2.099 0-3.869 0.464-5.307 1.389-2.283 1.45-3.496 3.91-3.643 7.382h5.29c0-1.011 0.294-1.986 0.885-2.923s1.592-1.406 3.005-1.406c1.435 0 2.426 0.381 2.966 1.141 0.542 0.763 0.813 1.606 0.813 2.531 0 0.805-0.403 1.541-0.89 2.211-0.267 0.39-0.621 0.749-1.058 1.078 0 0-2.869 1.84-4.13 3.318-0.731 0.858-0.797 2.141-0.861 3.982-0.005 0.131 0.045 0.402 0.504 0.402s3.707 0 4.115 0 0.493-0.302 0.499-0.435c0.029-0.67 0.104-1.013 0.227-1.4 0.232-0.731 0.859-1.37 1.566-1.918l1.456-1.005c1.314-1.024 2.363-1.864 2.826-2.523 0.79-1.085 1.346-2.419 1.346-4.002 0-2.584-0.914-4.533-2.736-5.848zM15.586 23.878c-1.824-0.054-3.328 1.206-3.386 3.184-0.058 1.976 1.373 3.282 3.197 3.336 1.904 0.056 3.368-1.165 3.426-3.141 0.056-1.978-1.333-3.323-3.237-3.379z"></path>
</g>
<g id="icon-list">
	<path class="path1" d="M25.6 14.4h-19.2c-0.883 0-1.6 0.717-1.6 1.6s0.717 1.6 1.6 1.6h19.2c0.885 0 1.6-0.717 1.6-1.6s-0.715-1.6-1.6-1.6zM6.4 11.2h19.2c0.885 0 1.6-0.717 1.6-1.6s-0.715-1.6-1.6-1.6h-19.2c-0.883 0-1.6 0.717-1.6 1.6s0.717 1.6 1.6 1.6zM25.6 20.8h-19.2c-0.883 0-1.6 0.715-1.6 1.6s0.717 1.6 1.6 1.6h19.2c0.885 0 1.6-0.715 1.6-1.6s-0.715-1.6-1.6-1.6z"></path>
</g>
<g id="icon-trash">
	<path class="path1" d="M5.422 12.659l1.763 15.534c0.094 0.738 3.656 3.163 8.814 3.166 5.158-0.003 8.722-2.429 8.816-3.166l1.763-15.534c-2.694 1.507-6.722 2.221-10.579 2.221s-7.885-0.714-10.578-2.221zM21.067 3.059l-1.374-1.525c-0.53-0.754-1.106-0.894-2.227-0.894h-2.931c-1.12 0-1.696 0.141-2.227 0.894l-1.373 1.525c-4.112 0.718-7.094 2.624-7.094 4.029v0.274c0 2.474 5.443 4.48 12.16 4.48s12.16-2.006 12.16-4.48v-0.274c0-1.405-2.981-3.31-7.093-4.029zM19.31 6.622l-2.003-2.142h-2.614l-2.003 2.142h-2.72c0 0 2.979-3.552 3.378-4.034 0.304-0.368 0.616-0.509 1.019-0.509h3.269c0.403 0 0.714 0.141 1.019 0.509 0.397 0.482 3.378 4.034 3.378 4.034h-2.722z"></path>
</g>
<g id="icon-install">
	<path class="path1" d="M29.894 18.237l-5.037-11.987c-0.397-0.8-1.453-1.454-2.347-1.454h-3.278l0.608 6.504h4.32l-8.16 6.768-8.16-6.768h4.32l0.608-6.502h-3.277c-0.893 0-1.949 0.654-2.347 1.454l-5.037 11.987c-0.4 0.8-0.605 2.176-0.459 3.059l1.088 5.898c0.147 0.882 0.997 1.603 1.89 1.603h22.75c0.894 0 1.744-0.722 1.891-1.603l1.088-5.898c0.144-0.883-0.061-2.261-0.461-3.061zM27.712 22.438l-0.413 2.403c-0.125 0.923-0.957 1.678-1.846 1.678h-18.906c-0.891 0-1.723-0.755-1.846-1.678l-0.414-2.403c-0.123-0.923 0.506-1.678 1.397-1.678h20.634c0.893 0.002 1.52 0.755 1.395 1.678z"></path>
</g>
<g id="icon-upload">
	<path class="path1" d="M24.341 12.222c-0.44 0-0.874 0.038-1.294 0.109-1.050-3.432-4.301-5.933-8.154-5.933-4.701 0-8.51 3.725-8.51 8.32 0 0.41 0.032 0.813 0.091 1.208-0.226-0.026-0.453-0.043-0.686-0.043-3.195 0-5.787 2.534-5.787 5.658 0 3.125 2.592 5.658 5.787 5.658h7.973v-6.080h-3.36l5.6-7.36 5.6 7.36h-3.36v6.080h6.099c4.232 0 7.659-3.354 7.659-7.488 0.002-4.136-3.427-7.488-7.658-7.488z"></path>
</g>
<g id="icon-resize-enlarge">
	<path class="path1" d="M18.581 3.379l3.846 3.114-4.848 4.688 3.2 3.2 4.691-4.851 3.187 3.931v-10.082h-10.077zM11.181 17.581l-4.69 4.848-3.152-3.89v10.080h10.080l-3.89-3.15 4.85-4.69-3.198-3.198z"></path>
</g>
<g id="icon-resize-shrink">
	<path class="path1" d="M6.56 22.56l-4.96 4.64 3.2 3.2 4.64-4.96 3.2 3.36v-9.44h-9.44l3.36 3.2zM30.4 4.8l-3.2-3.2-4.64 4.96-3.2-3.36v9.44h9.44l-3.36-3.2 4.96-4.64z"></path>
</g>
<g id="icon-arrow-left">
	<path class="path1" d="M18.299 7.226c-0.669 0.653-7.203 7.514-7.203 7.514-0.357 0.349-0.534 0.805-0.534 1.261s0.178 0.912 0.534 1.261c0 0 6.534 6.861 7.203 7.512 0.669 0.653 1.872 0.698 2.586 0 0.712-0.696 0.768-1.667-0.002-2.52l-5.995-6.253 5.995-6.253c0.77-0.854 0.714-1.826 0.002-2.522-0.715-0.696-1.918-0.653-2.586 0z"></path>
</g>
<g id="icon-arrow-down">
	<path class="path1" d="M24.773 13.701c-0.651 0.669-7.512 7.205-7.512 7.205-0.349 0.357-0.805 0.534-1.261 0.534-0.458 0-0.914-0.178-1.261-0.534 0 0-6.861-6.536-7.514-7.205-0.651-0.669-0.696-1.87 0-2.586 0.698-0.714 1.669-0.77 2.522 0l6.253 5.997 6.251-5.995c0.854-0.77 1.827-0.714 2.522 0 0.698 0.714 0.654 1.917 0 2.584z"></path>
</g>
<g id="icon-arrow-up">
	<path class="path1" d="M24.773 18.299c-0.651-0.669-7.512-7.203-7.512-7.203-0.349-0.357-0.805-0.536-1.261-0.536-0.458 0-0.914 0.179-1.261 0.536 0 0-6.861 6.534-7.514 7.203-0.651 0.669-0.696 1.872 0 2.586 0.698 0.712 1.669 0.77 2.522 0l6.253-5.995 6.251 5.995c0.854 0.77 1.827 0.712 2.522 0 0.698-0.715 0.654-1.918 0-2.586z"></path>
</g>
<g id="icon-arrow-right">
	<path class="path1" d="M13.701 7.226c0.669 0.653 7.203 7.514 7.203 7.514 0.358 0.349 0.536 0.805 0.536 1.261s-0.178 0.912-0.536 1.261c0 0-6.534 6.861-7.203 7.512-0.669 0.653-1.87 0.698-2.586 0-0.714-0.696-0.77-1.667 0-2.52l5.997-6.253-5.995-6.253c-0.77-0.854-0.714-1.826 0-2.522s1.917-0.653 2.584 0z"></path>
</g>
<g id="icon-github">
	<path class="path1" d="M21.088 18.096c-1.149 0-2.080 1.29-2.080 2.878 0 1.59 0.931 2.88 2.080 2.88s2.080-1.29 2.080-2.88c-0.002-1.59-0.933-2.878-2.080-2.878zM28.33 10.602c0.237-0.584 0.248-3.904-1.014-7.082 0 0-2.899 0.317-7.283 3.326-0.92-0.254-2.477-0.381-4.032-0.381-1.557 0-3.112 0.128-4.034 0.381-4.382-3.010-7.28-3.326-7.28-3.326-1.262 3.178-1.253 6.498-1.014 7.082-1.485 1.613-2.392 3.549-2.392 6.194 0 11.498 9.539 11.682 11.947 11.682 0.546 0 1.63 0.002 2.774 0.003 1.144-0.002 2.229-0.003 2.771-0.003 2.41 0 11.947-0.184 11.947-11.682 0-2.645-0.906-4.581-2.39-6.194zM16.045 27.064h-0.088c-6.035 0-10.736-0.72-10.736-6.586 0-1.405 0.498-2.709 1.674-3.79 1.966-1.803 5.29-0.848 9.062-0.848 0.014 0 0.030 0 0.045-0.002 0.016 0 0.030 0.002 0.043 0.002 3.773 0 7.098-0.955 9.062 0.848 1.176 1.082 1.672 2.386 1.672 3.79 0 5.866-4.698 6.586-10.734 6.586zM10.914 18.096c-1.149 0-2.080 1.29-2.080 2.878 0 1.59 0.931 2.88 2.080 2.88s2.080-1.29 2.080-2.88c0-1.59-0.931-2.878-2.080-2.878z"></path>
</g>
<g id="icon-twitter">
	<path class="path1" d="M30.72 6.869c-1.085 0.482-2.248 0.805-3.47 0.952 1.248-0.747 2.206-1.931 2.656-3.341-1.166 0.691-2.459 1.195-3.834 1.466-1.102-1.174-2.672-1.907-4.41-1.907-3.336 0-6.040 2.704-6.040 6.038 0 0.474 0.053 0.934 0.157 1.376-5.019-0.251-9.47-2.656-12.448-6.31-0.522 0.891-0.821 1.93-0.821 3.037 0 2.096 1.067 3.944 2.688 5.027-0.99-0.032-1.922-0.302-2.736-0.755 0 0.026 0 0.050 0 0.075 0 2.926 2.083 5.366 4.845 5.923-0.506 0.138-1.040 0.211-1.592 0.211-0.389 0-0.766-0.037-1.136-0.107 0.768 2.4 3 4.146 5.642 4.194-2.067 1.621-4.67 2.586-7.501 2.586-0.488 0-0.968-0.029-1.44-0.085 2.672 1.714 5.846 2.714 9.259 2.714 11.109 0 17.184-9.203 17.184-17.186 0-0.261-0.005-0.522-0.018-0.781 1.181-0.851 2.203-1.915 3.014-3.126z"></path>
</g>
<g id="icon-googleplus">
	<path class="path1" d="M3.184 8.942c0 2.389 0.798 4.115 2.371 5.128 1.288 0.83 2.784 0.955 3.562 0.955 0.189 0 0.339-0.008 0.445-0.014 0 0-0.246 1.605 0.944 3.194l-0.054-0.002c-2.062 0-8.79 0.432-8.79 5.963 0 5.627 6.179 5.912 7.418 5.912 0.098 0 0.154-0.002 0.154-0.002 0.014 0 0.102 0.003 0.253 0.003 0.795 0 2.851-0.099 4.762-1.029 2.477-1.202 3.734-3.294 3.734-6.216 0-2.824-1.914-4.504-3.312-5.733-0.853-0.749-1.59-1.395-1.59-2.024 0-0.64 0.538-1.122 1.219-1.731 1.101-0.986 2.141-2.389 2.141-5.042 0-2.333-0.302-3.898-2.166-4.89 0.195-0.099 0.882-0.171 1.222-0.219 1.010-0.138 2.486-0.294 2.486-1.118v-0.158h-7.357c-0.074 0.002-7.44 0.275-7.44 7.022zM15.061 23.363c0.141 2.25-1.784 3.91-4.674 4.12-2.934 0.216-5.352-1.106-5.493-3.355-0.067-1.080 0.406-2.138 1.336-2.981 0.944-0.853 2.237-1.379 3.646-1.485 0.166-0.010 0.331-0.018 0.496-0.018 2.715 0 4.555 1.597 4.688 3.718zM13.139 7.402c0.722 2.539-0.368 5.194-2.104 5.683-0.2 0.056-0.406 0.085-0.614 0.085-1.592 0-3.168-1.61-3.752-3.827-0.326-1.246-0.301-2.334 0.074-3.382 0.368-1.029 1.029-1.726 1.861-1.96 0.2-0.058 0.408-0.085 0.616-0.085 1.92 0 3.155 0.797 3.92 3.486zM25.538 12.931v-4.8h-3.040v4.8h-4.8v3.040h4.8v4.8h3.040v-4.8h4.8v-3.040h-4.8z"></path>
</g>
<g id="icon-pinterest">
	<path class="path1" d="M13.786 21.165c-0.84 4.405-1.866 8.629-4.906 10.835-0.938-6.659 1.378-11.659 2.453-16.968-1.834-3.088 0.221-9.299 4.090-7.768 4.76 1.883-4.122 11.477 1.84 12.675 6.226 1.251 8.766-10.8 4.907-14.718-5.578-5.661-16.237-0.131-14.925 7.97 0.318 1.981 2.365 2.582 0.818 5.315-3.57-0.79-4.635-3.606-4.498-7.36 0.221-6.142 5.52-10.443 10.835-11.038 6.723-0.754 13.032 2.467 13.901 8.79 0.981 7.136-3.032 14.866-10.222 14.309-1.947-0.149-2.765-1.114-4.293-2.042z"></path>
</g>
<g id="icon-skype">
	<path class="path1" d="M29.874 19.261c0.213-0.998 0.325-2.035 0.325-3.101 0-7.978-6.286-14.446-14.042-14.446-0.818 0-1.621 0.074-2.4 0.211-1.258-0.813-2.741-1.285-4.334-1.285-4.496 0-8.142 3.752-8.142 8.379 0 1.546 0.41 2.994 1.12 4.237-0.186 0.938-0.285 1.909-0.285 2.904 0 7.978 6.288 14.446 14.042 14.446 0.878 0 1.739-0.083 2.571-0.242 1.146 0.634 2.456 0.994 3.848 0.994 4.499 0 8.144-3.75 8.144-8.378 0-1.336-0.306-2.6-0.846-3.72zM23.358 23.066c-0.65 0.946-1.61 1.696-2.853 2.227-1.232 0.526-2.706 0.794-4.387 0.794-2.018 0-3.707-0.365-5.027-1.086-0.944-0.523-1.722-1.234-2.312-2.109-0.597-0.886-0.899-1.765-0.899-2.611 0-0.53 0.197-0.989 0.586-1.365 0.386-0.371 0.878-0.562 1.466-0.562 0.482 0 0.899 0.149 1.237 0.442 0.323 0.283 0.6 0.701 0.822 1.237 0.25 0.587 0.52 1.082 0.806 1.472 0.275 0.374 0.672 0.691 1.178 0.938 0.509 0.246 1.195 0.373 2.040 0.373 1.16 0 2.112-0.254 2.827-0.758 0.701-0.493 1.040-1.082 1.040-1.803 0-0.57-0.178-1.019-0.542-1.37-0.382-0.366-0.888-0.653-1.499-0.85-0.638-0.205-1.506-0.426-2.576-0.656-1.458-0.322-2.696-0.702-3.68-1.133-1.005-0.438-1.818-1.050-2.411-1.814-0.603-0.774-0.909-1.75-0.909-2.896 0-1.091 0.32-2.075 0.954-2.923 0.629-0.842 1.544-1.498 2.725-1.947 1.166-0.443 2.554-0.669 4.122-0.669 1.254 0 2.357 0.15 3.277 0.443 0.925 0.298 1.706 0.698 2.318 1.19 0.618 0.498 1.077 1.029 1.366 1.578 0.291 0.558 0.438 1.112 0.438 1.648 0 0.517-0.194 0.986-0.576 1.395-0.384 0.411-0.87 0.619-1.442 0.619-0.518 0-0.926-0.131-1.21-0.387-0.262-0.238-0.536-0.613-0.837-1.147-0.35-0.686-0.774-1.226-1.259-1.605-0.474-0.37-1.261-0.558-2.346-0.558-1.006 0-1.826 0.208-2.434 0.619-0.587 0.397-0.87 0.85-0.87 1.386 0 0.33 0.091 0.605 0.28 0.84 0.2 0.251 0.48 0.472 0.837 0.654 0.368 0.19 0.749 0.342 1.13 0.451 0.39 0.11 1.045 0.275 1.944 0.49 1.136 0.251 2.179 0.533 3.102 0.835 0.936 0.307 1.744 0.688 2.403 1.128 0.672 0.451 1.205 1.030 1.582 1.72 0.378 0.694 0.57 1.55 0.57 2.544 0.002 1.194-0.328 2.277-0.981 3.227z"></path>
</g>
</defs>

<g fill="#000000">
	<use xlink:href="#icon-phone" transform="translate(0 0)"></use>
	<use xlink:href="#icon-mobile" transform="translate(48 0)"></use>
	<use xlink:href="#icon-mail" transform="translate(96 0)"></use>
	<use xlink:href="#icon-vcard" transform="translate(144 0)"></use>
	<use xlink:href="#icon-export" transform="translate(192 0)"></use>
	<use xlink:href="#icon-location" transform="translate(240 0)"></use>
	<use xlink:href="#icon-house" transform="translate(288 0)"></use>
	<use xlink:href="#icon-link" transform="translate(336 0)"></use>
	<use xlink:href="#icon-new" transform="translate(384 0)"></use>
	<use xlink:href="#icon-newspaper" transform="translate(432 0)"></use>
	<use xlink:href="#icon-calendar" transform="translate(480 0)"></use>
	<use xlink:href="#icon-earth" transform="translate(528 0)"></use>
	<use xlink:href="#icon-keyboard" transform="translate(576 0)"></use>
	<use xlink:href="#icon-graph" transform="translate(624 0)"></use>
	<use xlink:href="#icon-logout" transform="translate(672 0)"></use>
	<use xlink:href="#icon-login" transform="translate(720 0)"></use>
	<use xlink:href="#icon-minus" transform="translate(0 48)"></use>
	<use xlink:href="#icon-plus" transform="translate(48 48)"></use>
	<use xlink:href="#icon-blocked" transform="translate(96 48)"></use>
	<use xlink:href="#icon-info" transform="translate(144 48)"></use>
	<use xlink:href="#icon-info2" transform="translate(192 48)"></use>
	<use xlink:href="#icon-question" transform="translate(240 48)"></use>
	<use xlink:href="#icon-list" transform="translate(288 48)"></use>
	<use xlink:href="#icon-trash" transform="translate(336 48)"></use>
	<use xlink:href="#icon-install" transform="translate(384 48)"></use>
	<use xlink:href="#icon-upload" transform="translate(432 48)"></use>
	<use xlink:href="#icon-resize-enlarge" transform="translate(480 48)"></use>
	<use xlink:href="#icon-resize-shrink" transform="translate(528 48)"></use>
	<use xlink:href="#icon-arrow-left" transform="translate(576 48)"></use>
	<use xlink:href="#icon-arrow-down" transform="translate(624 48)"></use>
	<use xlink:href="#icon-arrow-up" transform="translate(672 48)"></use>
	<use xlink:href="#icon-arrow-right" transform="translate(720 48)"></use>
	<use xlink:href="#icon-github" transform="translate(0 96)"></use>
	<use xlink:href="#icon-twitter" transform="translate(48 96)"></use>
	<use xlink:href="#icon-googleplus" transform="translate(96 96)"></use>
	<use xlink:href="#icon-pinterest" transform="translate(144 96)"></use>
	<use xlink:href="#icon-skype" transform="translate(192 96)"></use>
</g>
</svg>