<svg width="1271" height="742" xmlns="http://www.w3.org/2000/svg"><path d="M-48.071-105.054l-49.008 164.558 122.551-114.919z" fill="#ffffe5" stroke="#ffffe5"/><path d="M-48.071-105.054l73.543 49.639 204.98 9.637z" fill="#f2fae2" stroke="#f2fae2"/><path d="M-48.071-105.054l278.523 59.276 266.025-34.284z" fill="#d5efdb" stroke="#d5efdb"/><path d="M-48.071-105.054l544.548 24.992 193.546-43.114z" fill="#b9e4de" stroke="#b9e4de"/><path d="M25.472-55.415l-122.551 114.919 186.842 13.253z" fill="#f9ffdd" stroke="#f9ffdd"/><path d="M25.472-55.415l64.291 128.172 140.689-118.535z" fill="#eaf7db" stroke="#eaf7db"/><path d="M230.452-45.778l-140.689 118.535 175.517-33.6z" fill="#d7f1d5" stroke="#d7f1d5"/><path d="M230.452-45.778l34.828 84.935 97.952-89.387z" fill="#caead7" stroke="#caead7"/><path d="M230.452-45.778l132.78-4.452 133.246-29.832z" fill="#bce5dd" stroke="#bce5dd"/><path d="M363.232-50.23l-97.952 89.387 106.993-11.127z" fill="#c0e7d6" stroke="#c0e7d6"/><path d="M363.232-50.23l9.041 78.26 124.204-108.093z" fill="#b3e2dc" stroke="#b3e2dc"/><path d="M496.478-80.062l-124.204 108.093 121.961 41.339z" fill="#a9dfda" stroke="#a9dfda"/><path d="M496.478-80.062l-2.243 149.432 142.916 39.189z" fill="#98d7d8" stroke="#98d7d8"/><path d="M496.478-80.062l140.672 188.621 52.874-231.735z" fill="#9cd0dc" stroke="#9cd0dc"/><path d="M690.024-123.176l-52.874 231.735 194.595-18.483z" fill="#92c4d4" stroke="#92c4d4"/><path d="M690.024-123.176l141.722 213.252-1.952-199.937z" fill="#95bcd9" stroke="#95bcd9"/><path d="M690.024-123.176l139.77 13.315 301.319 19.314z" fill="#94add3" stroke="#94add3"/><path d="M829.793-109.861l1.952 199.937 98.042-157.752z" fill="#94b0d2" stroke="#94b0d2"/><path d="M829.793-109.861l99.994 42.184 201.325-22.871z" fill="#93a2ce" stroke="#93a2ce"/><path d="M929.788-67.677l-98.042 157.752 108.678-31.298z" fill="#8eabc9" stroke="#8eabc9"/><path d="M929.788-67.677l10.636 126.454 146.145.368z" fill="#8f9ec4" stroke="#8f9ec4"/><path d="M929.788-67.677l156.781 126.822 44.544-149.693z" fill="#9295c4" stroke="#9295c4"/><path d="M1131.113-90.547l-44.544 149.693 147.666-89.86z" fill="#9086bc" stroke="#9086bc"/><path d="M1131.113-90.547l103.122 59.833 238.713-14.9z" fill="#8f80b6" stroke="#8f80b6"/><path d="M1234.234-30.715l-147.666 89.86 154.157-8.28z" fill="#8a81b5" stroke="#8a81b5"/><path d="M1234.234-30.715l6.491 81.58 170.184 54.73z" fill="#8580ac" stroke="#8580ac"/><path d="M1234.234-30.715l176.675 136.31 62.038-151.21z" fill="#8b80aa" stroke="#8b80aa"/><path d="M1472.947-45.614l-62.038 151.21 58.166 366.359z" fill="#627c99" stroke="#627c99"/><path d="M-97.079 59.504l-13.127 469.243 32.135-348.998z" fill="#b6f1dd" stroke="#b6f1dd"/><path d="M-97.079 59.504l19.008 120.245 167.834-106.992z" fill="#e9ffd7" stroke="#e9ffd7"/><path d="M89.763 72.757l-167.834 106.992 186.621 36.097z" fill="#d5fbd0" stroke="#d5fbd0"/><path d="M89.763 72.757l18.788 143.09 128.221-29.644z" fill="#c1f3cb" stroke="#c1f3cb"/><path d="M89.763 72.757l147.009 113.445 28.508-147.045z" fill="#c6f1cd" stroke="#c6f1cd"/><path d="M265.28 39.157l-28.508 147.045 158.406 1.373z" fill="#abeac8" stroke="#abeac8"/><path d="M265.28 39.157l129.899 148.418-22.905-159.544z" fill="#ade6cf" stroke="#ade6cf"/><path d="M372.273 28.03l22.905 159.544 99.056-118.205z" fill="#9de1d0" stroke="#9de1d0"/><path d="M494.235 69.37l-99.056 118.205 133.032 17.105z" fill="#86ddcd" stroke="#86ddcd"/><path d="M494.235 69.37l33.976 135.31 108.94-96.121z" fill="#83d6cf" stroke="#83d6cf"/><path d="M637.15 108.559l-108.94 96.121 117.96 21.598z" fill="#71cccd" stroke="#71cccd"/><path d="M637.15 108.559l9.021 117.719 185.574-136.202z" fill="#7ac5ca" stroke="#7ac5ca"/><path d="M831.745 90.075l-185.574 136.202 228.347 43.821z" fill="#64b6c9" stroke="#64b6c9"/><path d="M831.745 90.075l42.773 180.023 65.906-211.322z" fill="#77aec0" stroke="#77aec0"/><path d="M940.424 58.777l-65.906 211.322 149.337-99.891z" fill="#6da2bc" stroke="#6da2bc"/><path d="M940.424 58.777l83.431 111.431 62.714-111.062z" fill="#7e9abb" stroke="#7e9abb"/><path d="M1086.568 59.145l-62.714 111.062 68.502 71.649z" fill="#6f91b3" stroke="#6f91b3"/><path d="M1086.568 59.145l5.789 182.711 139.097 5.91z" fill="#6484af" stroke="#6484af"/><path d="M1086.568 59.145l144.886 188.621 9.271-196.901z" fill="#7681ac" stroke="#7681ac"/><path d="M1240.725 50.865l-9.271 196.901 179.455-142.171z" fill="#7280a4" stroke="#7280a4"/><path d="M1410.909 105.596l-179.455 142.171 152.169 16.941z" fill="#5878a2" stroke="#5878a2"/><path d="M1410.909 105.596l-27.286 159.112 85.452 207.247z" fill="#3a6fa2" stroke="#3a6fa2"/><path d="M-78.071 179.749l-32.135 348.998 75.827-194.545z" fill="#a2e1dc" stroke="#a2e1dc"/><path d="M-78.071 179.749l43.692 154.453 142.929-118.355z" fill="#bbf3d8" stroke="#bbf3d8"/><path d="M108.551 215.846l-142.929 118.355 167.065 54.15z" fill="#98e4d7" stroke="#98e4d7"/><path d="M108.551 215.846l24.135 172.505 104.086-202.149z" fill="#96e5d2" stroke="#96e5d2"/><path d="M236.772 186.202l-104.086 202.149 113.692 39.319z" fill="#7dd5d0" stroke="#7dd5d0"/><path d="M236.772 186.202l9.606 241.468 162.027-71.23z" fill="#6dd1cf" stroke="#6dd1cf"/><path d="M236.772 186.202l171.633 170.238-13.227-168.865z" fill="#7adacf" stroke="#7adacf"/><path d="M395.179 187.575l13.227 168.865 119.805-151.761z" fill="#66d2d2" stroke="#66d2d2"/><path d="M528.21 204.679l-119.805 151.761 90.15 57.224z" fill="#4ac3d5" stroke="#4ac3d5"/><path d="M528.21 204.679l-29.654 208.985 143.136-21.318z" fill="#42bad4" stroke="#42bad4"/><path d="M528.21 204.679l113.481 187.667 4.479-166.069z" fill="#4cc0d3" stroke="#4cc0d3"/><path d="M646.171 226.278l-4.479 166.069 232.826-122.248z" fill="#3eb1d2" stroke="#3eb1d2"/><path d="M874.518 270.099l-232.826 122.248 226.554 2.171z" fill="#389bcc" stroke="#389bcc"/><path d="M874.518 270.099l-6.272 124.419 100.096-7.228z" fill="#368bc5" stroke="#368bc5"/><path d="M874.518 270.099l93.824 117.19 124.015-145.432z" fill="#3a8cc2" stroke="#3a8cc2"/><path d="M874.518 270.099l217.839-28.242-68.502-71.649z" fill="#5593bc" stroke="#5593bc"/><path d="M1092.357 241.857l-124.015 145.432 193.955-68.568z" fill="#377aba" stroke="#377aba"/><path d="M1092.357 241.857l69.94 76.864 69.157-70.955z" fill="#4275b3" stroke="#4275b3"/><path d="M1231.454 247.766l-69.157 70.955 148.241 106.917z" fill="#3365ae" stroke="#3365ae"/><path d="M1231.454 247.766l79.084 177.871 73.085-160.93z" fill="#3469aa" stroke="#3469aa"/><path d="M1383.623 264.708l-73.085 160.93 92.476-.349z" fill="#2e5ca3" stroke="#2e5ca3"/><path d="M1383.623 264.708l19.391 160.581 66.061 46.666z" fill="#2c599e" stroke="#2c599e"/><path d="M-34.379 334.202l-75.827 194.545 128.951-22.598z" fill="#99c8d4" stroke="#99c8d4"/><path d="M-34.379 334.202l53.123 171.947 113.941-117.797z" fill="#96d0d4" stroke="#96d0d4"/><path d="M132.686 388.351l-113.941 117.797 234.853-9.165z" fill="#80bccb" stroke="#80bccb"/><path d="M132.686 388.351l120.912 108.632-7.219-69.313z" fill="#73bdca" stroke="#73bdca"/><path d="M246.379 427.67l7.219 69.313 154.808-140.543z" fill="#63b9ca" stroke="#63b9ca"/><path d="M408.406 356.44l-154.808 140.543 112.054 75.984z" fill="#59a9c6" stroke="#59a9c6"/><path d="M408.406 356.44l-42.754 216.527 132.904-159.303z" fill="#4baccd" stroke="#4baccd"/><path d="M498.556 413.665l-132.904 159.303 181.827-36.871z" fill="#4097c6" stroke="#4097c6"/><path d="M498.556 413.665l48.922 122.432 94.213-143.75z" fill="#39a0ce" stroke="#39a0ce"/><path d="M641.692 392.346l-94.213 143.75 111.224 31.394z" fill="#358bc6" stroke="#358bc6"/><path d="M641.692 392.346l17.011 175.144 191.383-60.959z" fill="#3183c4" stroke="#3183c4"/><path d="M641.692 392.346l208.394 114.185 18.16-112.014z" fill="#318bc9" stroke="#318bc9"/><path d="M868.246 394.517l-18.16 112.014 118.257-119.242z" fill="#307bc1" stroke="#307bc1"/><path d="M968.342 387.289l-118.257 119.242 89.095 74.327z" fill="#2d66b8" stroke="#2d66b8"/><path d="M968.342 387.289l-29.161 193.569 135.155-30.273z" fill="#2c57b0" stroke="#2c57b0"/><path d="M968.342 387.289l105.993 163.296 87.962-231.864z" fill="#2e64b6" stroke="#2e64b6"/><path d="M1162.297 318.721l-87.962 231.864 236.203-124.948z" fill="#2b50ad" stroke="#2b50ad"/><path d="M1310.538 425.638l-236.203 124.948 170.491 29.686z" fill="#2836a0" stroke="#2836a0"/><path d="M1310.538 425.638l-65.712 154.633 170.11 44.547z" fill="#262e94" stroke="#262e94"/><path d="M1310.538 425.638l104.398 199.181-11.922-199.53z" fill="#263e97" stroke="#263e97"/><path d="M1403.015 425.288l11.922 199.53 54.139-152.864z" fill="#263992" stroke="#263992"/><path d="M-110.206 528.747l-4.45 326.951 5.434-204.894z" fill="#9385b7" stroke="#9385b7"/><path d="M-110.206 528.747l.984 122.057 127.967-144.656z" fill="#97a8c6" stroke="#97a8c6"/><path d="M18.745 506.148l-127.967 144.656 232.544 53.554z" fill="#9396ba" stroke="#9396ba"/><path d="M18.745 506.148l104.577 198.209 57.819-84.57z" fill="#8192b7" stroke="#8192b7"/><path d="M18.745 506.148l162.396 113.639 72.457-122.805z" fill="#7ba4bf" stroke="#7ba4bf"/><path d="M253.598 496.983l-72.457 122.805 184.511-46.82z" fill="#6594b7" stroke="#6594b7"/><path d="M365.652 572.968l-184.511 46.82 239.826 7.826z" fill="#5983b2" stroke="#5983b2"/><path d="M365.652 572.968l55.316 54.646 126.511-91.518z" fill="#4383ba" stroke="#4383ba"/><path d="M547.478 536.096l-126.511 91.518 138.224 74.78z" fill="#3672b6" stroke="#3672b6"/><path d="M547.478 536.096l11.713 166.297 99.511-134.904z" fill="#336fb7" stroke="#336fb7"/><path d="M658.702 567.49l-99.511 134.904 166.65-24.257z" fill="#2f5baf" stroke="#2f5baf"/><path d="M658.702 567.49l67.139 110.647 85.096-63.055z" fill="#2d5ab1" stroke="#2d5ab1"/><path d="M658.702 567.49l152.235 47.593 39.148-108.551z" fill="#2d66b8" stroke="#2d66b8"/><path d="M850.085 506.531l-39.148 108.551 128.243-34.225z" fill="#2b57b1" stroke="#2b57b1"/><path d="M939.181 580.858l-128.243 34.225 182.521 5.273z" fill="#2a45a8" stroke="#2a45a8"/><path d="M939.181 580.858l54.277 39.497 80.878-69.77z" fill="#293ea5" stroke="#293ea5"/><path d="M1074.335 550.585l-80.878 69.77 127.132 93.739z" fill="#27289a" stroke="#27289a"/><path d="M1074.335 550.585l46.254 163.509 124.237-133.823z" fill="#262096" stroke="#262096"/><path d="M1244.827 580.271l-124.237 133.823 156.619 19.924z" fill="#240788" stroke="#240788"/><path d="M1244.827 580.271l32.382 153.747 137.728-109.2z" fill="#230f86" stroke="#230f86"/><path d="M1469.075 471.955l-54.139 152.864-21.802 249.807z" fill="#220c7c" stroke="#220c7c"/><path d="M-109.222 650.804l-5.434 204.894 133.154 1.018z" fill="#9180a5" stroke="#9180a5"/><path d="M-109.222 650.804l127.72 205.912 104.824-152.358z" fill="#907fa9" stroke="#907fa9"/><path d="M123.322 704.358l-104.824 152.358 148.432 6.04z" fill="#7d789a" stroke="#7d789a"/><path d="M123.322 704.358l43.607 158.398 216.889-32.619z" fill="#676f96" stroke="#676f96"/><path d="M123.322 704.358l260.496 125.779-202.677-210.349z" fill="#686fa1" stroke="#686fa1"/><path d="M181.141 619.788l202.677 210.349 37.149-202.523z" fill="#5669a6" stroke="#5669a6"/><path d="M420.967 627.614l-37.149 202.523 175.373-127.743z" fill="#3d5fa6" stroke="#3d5fa6"/><path d="M559.191 702.394l-175.373 127.743 172.478-28.101z" fill="#335c9f" stroke="#335c9f"/><path d="M559.191 702.394l-2.894 99.641 169.545-123.898z" fill="#2f50a4" stroke="#2f50a4"/><path d="M725.841 678.137l-169.545 123.898 143.108 53.007z" fill="#2b4b9c" stroke="#2b4b9c"/><path d="M725.841 678.137l-26.436 176.905 108.683-64.448z" fill="#28429b" stroke="#28429b"/><path d="M725.841 678.137l82.247 112.457 2.849-175.512z" fill="#293da4" stroke="#293da4"/><path d="M810.937 615.083l-2.849 175.512 166.904-5.752z" fill="#273199" stroke="#273199"/><path d="M810.937 615.083l164.055 169.76 18.465-164.487z" fill="#282f9d" stroke="#282f9d"/><path d="M993.458 620.355l-18.465 164.487 145.597-70.748z" fill="#261891" stroke="#261891"/><path d="M1120.59 714.094l-145.597 70.748 146.967 30.521z" fill="#231284" stroke="#231284"/><path d="M1120.59 714.094l1.369 101.269 155.249-81.345z" fill="#220380" stroke="#220380"/><path d="M1277.208 734.018l-155.249 81.345 201.471-22.872z" fill="#210077" stroke="#210077"/><path d="M1277.208 734.018l46.222 58.472 91.506-167.672z" fill="#210079" stroke="#210079"/><path d="M1414.936 624.819l-91.506 167.672 69.704 82.135z" fill="#1f0070" stroke="#1f0070"/><path d="M-114.656 855.698l281.586 7.058-148.432-6.04z" fill="#8a7e97" stroke="#8a7e97"/><path d="M166.929 862.756l1226.204 11.87-693.729-19.583z" fill="#25418d" stroke="#25418d"/><path d="M166.929 862.756l532.475-7.714-315.586-24.906z" fill="#416292" stroke="#416292"/><path d="M383.818 830.137l315.586 24.906-143.108-53.007z" fill="#2f5797" stroke="#2f5797"/><path d="M699.405 855.042l693.729 19.583-271.175-59.263z" fill="#211279" stroke="#211279"/><path d="M699.405 855.042l422.554-39.679-146.967-30.521z" fill="#242788" stroke="#242788"/><path d="M699.405 855.042l275.588-70.2-166.904 5.752z" fill="#253690" stroke="#253690"/><path d="M1121.959 815.363l271.175 59.263-69.704-82.135z" fill="#1f006e" stroke="#1f006e"/></svg>